<svg id="my-svg" width="100%" xmlns="http://www.w3.org/2000/svg" xmlns:xlink="http://www.w3.org/1999/xlink" class="flowchart" style="max-width: 898.5px; background-color: white;" viewBox="0 0 898.5 2622" role="graphics-document document" aria-roledescription="flowchart-v2"><style>#my-svg{font-family:"trebuchet ms",verdana,arial,sans-serif;font-size:16px;fill:#333;}@keyframes edge-animation-frame{from{stroke-dashoffset:0;}}@keyframes dash{to{stroke-dashoffset:0;}}#my-svg .edge-animation-slow{stroke-dasharray:9,5!important;stroke-dashoffset:900;animation:dash 50s linear infinite;stroke-linecap:round;}#my-svg .edge-animation-fast{stroke-dasharray:9,5!important;stroke-dashoffset:900;animation:dash 20s linear infinite;stroke-linecap:round;}#my-svg .error-icon{fill:#552222;}#my-svg .error-text{fill:#552222;stroke:#552222;}#my-svg .edge-thickness-normal{stroke-width:1px;}#my-svg .edge-thickness-thick{stroke-width:3.5px;}#my-svg .edge-pattern-solid{stroke-dasharray:0;}#my-svg .edge-thickness-invisible{stroke-width:0;fill:none;}#my-svg .edge-pattern-dashed{stroke-dasharray:3;}#my-svg .edge-pattern-dotted{stroke-dasharray:2;}#my-svg .marker{fill:#333333;stroke:#333333;}#my-svg .marker.cross{stroke:#333333;}#my-svg svg{font-family:"trebuchet ms",verdana,arial,sans-serif;font-size:16px;}#my-svg p{margin:0;}#my-svg .label{font-family:"trebuchet ms",verdana,arial,sans-serif;color:#333;}#my-svg .cluster-label text{fill:#333;}#my-svg .cluster-label span{color:#333;}#my-svg .cluster-label span p{background-color:transparent;}#my-svg .label text,#my-svg span{fill:#333;color:#333;}#my-svg .node rect,#my-svg .node circle,#my-svg .node ellipse,#my-svg .node polygon,#my-svg .node path{fill:#ECECFF;stroke:#9370DB;stroke-width:1px;}#my-svg .rough-node .label text,#my-svg .node .label text,#my-svg .image-shape .label,#my-svg .icon-shape .label{text-anchor:middle;}#my-svg .node .katex path{fill:#000;stroke:#000;stroke-width:1px;}#my-svg .rough-node .label,#my-svg .node .label,#my-svg .image-shape .label,#my-svg .icon-shape .label{text-align:center;}#my-svg .node.clickable{cursor:pointer;}#my-svg .root .anchor path{fill:#333333!important;stroke-width:0;stroke:#333333;}#my-svg .arrowheadPath{fill:#333333;}#my-svg .edgePath .path{stroke:#333333;stroke-width:1px;}#my-svg .flowchart-link{stroke:#333333;fill:none;}#my-svg .edgeLabel{background-color:rgba(232,232,232, 0.8);text-align:center;}#my-svg .edgeLabel p{background-color:rgba(232,232,232, 0.8);}#my-svg .edgeLabel rect{opacity:0.5;background-color:rgba(232,232,232, 0.8);fill:rgba(232,232,232, 0.8);}#my-svg .labelBkg{background-color:rgba(232, 232, 232, 0.5);}#my-svg .cluster rect{fill:#ffffde;stroke:#aaaa33;stroke-width:1px;}#my-svg .cluster text{fill:#333;}#my-svg .cluster span{color:#333;}#my-svg div.mermaidTooltip{position:absolute;text-align:center;max-width:200px;padding:2px;font-family:"trebuchet ms",verdana,arial,sans-serif;font-size:12px;background:hsl(80, 100%, 96.2745098039%);border:1px solid #aaaa33;border-radius:2px;pointer-events:none;z-index:100;}#my-svg .flowchartTitleText{text-anchor:middle;font-size:18px;fill:#333;}#my-svg rect.text{fill:none;stroke-width:0;}#my-svg .icon-shape,#my-svg .image-shape{background-color:rgba(232,232,232, 0.8);text-align:center;}#my-svg .icon-shape p,#my-svg .image-shape p{background-color:rgba(232,232,232, 0.8);padding:2px;}#my-svg .icon-shape .label rect,#my-svg .image-shape .label rect{opacity:0.5;background-color:rgba(232,232,232, 0.8);fill:rgba(232,232,232, 0.8);}#my-svg .label-icon{display:inline-block;height:1em;overflow:visible;vertical-align:-0.125em;}#my-svg .node .label-icon path{fill:currentColor;stroke:revert;stroke-width:revert;}#my-svg .node .neo-node{stroke:#9370DB;}#my-svg [data-look="neo"].node rect,#my-svg [data-look="neo"].cluster rect,#my-svg [data-look="neo"].node polygon{stroke:#9370DB;filter:drop-shadow(1px 2px 2px rgba(185, 185, 185, 1));}#my-svg [data-look="neo"].swimlane.cluster rect{filter:none;}#my-svg [data-look="neo"].node path{stroke:#9370DB;stroke-width:1px;}#my-svg [data-look="neo"].node .outer-path{filter:drop-shadow(1px 2px 2px rgba(185, 185, 185, 1));}#my-svg [data-look="neo"].node .neo-line path{stroke:#9370DB;filter:none;}#my-svg [data-look="neo"].node circle{stroke:#9370DB;filter:drop-shadow(1px 2px 2px rgba(185, 185, 185, 1));}#my-svg [data-look="neo"].node circle .state-start{fill:#000000;}#my-svg [data-look="neo"].icon-shape .icon{fill:#9370DB;filter:drop-shadow(1px 2px 2px rgba(185, 185, 185, 1));}#my-svg [data-look="neo"].icon-shape .icon-neo path{stroke:#9370DB;filter:drop-shadow(1px 2px 2px rgba(185, 185, 185, 1));}#my-svg :root{--mermaid-font-family:"trebuchet ms",verdana,arial,sans-serif;}</style><g><marker id="my-svg_flowchart-v2-pointEnd" class="marker flowchart-v2" viewBox="0 0 10 10" refX="5" refY="5" markerUnits="userSpaceOnUse" markerWidth="8" markerHeight="8" orient="auto"><path d="M 0 0 L 10 5 L 0 10 z" class="arrowMarkerPath" style="stroke-width: 1; stroke-dasharray: 1, 0;"/></marker><marker id="my-svg_flowchart-v2-pointStart" class="marker flowchart-v2" viewBox="0 0 10 10" refX="4.5" refY="5" markerUnits="userSpaceOnUse" markerWidth="8" markerHeight="8" orient="auto"><path d="M 0 5 L 10 10 L 10 0 z" class="arrowMarkerPath" style="stroke-width: 1; stroke-dasharray: 1, 0;"/></marker><marker id="my-svg_flowchart-v2-pointEnd-margin" class="marker flowchart-v2" viewBox="0 0 11.5 14" refX="11.5" refY="7" markerUnits="userSpaceOnUse" markerWidth="10.5" markerHeight="14" orient="auto"><path d="M 0 0 L 11.5 7 L 0 14 z" class="arrowMarkerPath" style="stroke-width: 0; stroke-dasharray: 1, 0;"/></marker><marker id="my-svg_flowchart-v2-pointStart-margin" class="marker flowchart-v2" viewBox="0 0 11.5 14" refX="1" refY="7" markerUnits="userSpaceOnUse" markerWidth="11.5" markerHeight="14" orient="auto"><polygon points="0,7 11.5,14 11.5,0" class="arrowMarkerPath" style="stroke-width: 0; stroke-dasharray: 1, 0;"/></marker><marker id="my-svg_flowchart-v2-circleEnd" class="marker flowchart-v2" viewBox="0 0 10 10" refX="11" refY="5" markerUnits="userSpaceOnUse" markerWidth="11" markerHeight="11" orient="auto"><circle cx="5" cy="5" r="5" class="arrowMarkerPath" style="stroke-width: 1; stroke-dasharray: 1, 0;"/></marker><marker id="my-svg_flowchart-v2-circleStart" class="marker flowchart-v2" viewBox="0 0 10 10" refX="-1" refY="5" markerUnits="userSpaceOnUse" markerWidth="11" markerHeight="11" orient="auto"><circle cx="5" cy="5" r="5" class="arrowMarkerPath" style="stroke-width: 1; stroke-dasharray: 1, 0;"/></marker><marker id="my-svg_flowchart-v2-circleEnd-margin" class="marker flowchart-v2" viewBox="0 0 10 10" refY="5" refX="12.25" markerUnits="userSpaceOnUse" markerWidth="14" markerHeight="14" orient="auto"><circle cx="5" cy="5" r="5" class="arrowMarkerPath" style="stroke-width: 0; stroke-dasharray: 1, 0;"/></marker><marker id="my-svg_flowchart-v2-circleStart-margin" class="marker flowchart-v2" viewBox="0 0 10 10" refX="-2" refY="5" markerUnits="userSpaceOnUse" markerWidth="14" markerHeight="14" orient="auto"><circle cx="5" cy="5" r="5" class="arrowMarkerPath" style="stroke-width: 0; stroke-dasharray: 1, 0;"/></marker><marker id="my-svg_flowchart-v2-crossEnd" class="marker cross flowchart-v2" viewBox="0 0 11 11" refX="12" refY="5.2" markerUnits="userSpaceOnUse" markerWidth="11" markerHeight="11" orient="auto"><path d="M 1,1 l 9,9 M 10,1 l -9,9" class="arrowMarkerPath" style="stroke-width: 2; stroke-dasharray: 1, 0;"/></marker><marker id="my-svg_flowchart-v2-crossStart" class="marker cross flowchart-v2" viewBox="0 0 11 11" refX="-1" refY="5.2" markerUnits="userSpaceOnUse" markerWidth="11" markerHeight="11" orient="auto"><path d="M 1,1 l 9,9 M 10,1 l -9,9" class="arrowMarkerPath" style="stroke-width: 2; stroke-dasharray: 1, 0;"/></marker><marker id="my-svg_flowchart-v2-crossEnd-margin" class="marker cross flowchart-v2" viewBox="0 0 15 15" refX="17.7" refY="7.5" markerUnits="userSpaceOnUse" markerWidth="12" markerHeight="12" orient="auto"><path d="M 1,1 L 14,14 M 1,14 L 14,1" class="arrowMarkerPath" style="stroke-width: 2.5;"/></marker><marker id="my-svg_flowchart-v2-crossStart-margin" class="marker cross flowchart-v2" viewBox="0 0 15 15" refX="-3.5" refY="7.5" markerUnits="userSpaceOnUse" markerWidth="12" markerHeight="12" orient="auto"><path d="M 1,1 L 14,14 M 1,14 L 14,1" class="arrowMarkerPath" style="stroke-width: 2.5; stroke-dasharray: 1, 0;"/></marker><g class="root"><g class="clusters"><g class="cluster" id="my-svg-L3" data-look="classic"><rect style="" x="8" y="1390" width="556.5" height="1072"/><g class="cluster-label" transform="translate(157.75, 1390)"><foreignObject width="257" height="24"><div xmlns="http://www.w3.org/1999/xhtml" style="display: table-cell; white-space: nowrap; line-height: 1.5;"><span class="nodeLabel"><p>Gate 3 — pre-tag full-suite (dev./sta.)</p></span></div></foreignObject></g></g><g class="cluster" id="my-svg-L2" data-look="classic"><rect style="" x="181.75" y="804" width="573.5" height="512"/><g class="cluster-label" transform="translate(316.5, 804)"><foreignObject width="304" height="24"><div xmlns="http://www.w3.org/1999/xhtml" style="display: table-cell; white-space: nowrap; line-height: 1.5;"><span class="nodeLabel"><p>Gate 2 — pre-push (integration, local deps)</p></span></div></foreignObject></g></g><g class="cluster" id="my-svg-L1" data-look="classic"><rect style="" x="329" y="266" width="561.5" height="464"/><g class="cluster-label" transform="translate(494.25, 266)"><foreignObject width="231" height="24"><div xmlns="http://www.w3.org/1999/xhtml" style="display: table-cell; white-space: nowrap; line-height: 1.5;"><span class="nodeLabel"><p>Gate 1 — pre-commit (fast, local)</p></span></div></foreignObject></g></g><g class="cluster" id="my-svg-L0" data-look="classic"><rect style="" x="382.5" y="8" width="283" height="208"/><g class="cluster-label" transform="translate(443.5, 8)"><foreignObject width="161" height="24"><div xmlns="http://www.w3.org/1999/xhtml" style="display: table-cell; white-space: nowrap; line-height: 1.5;"><span class="nodeLabel"><p>Author loop (RED-first)</p></span></div></foreignObject></g></g></g><g class="edgePaths"><path d="M524,87L524,91.167C524,95.333,524,103.667,524,111.333C524,119,524,126,524,129.5L524,133" id="my-svg-L_RED_GREEN_0" class="edge-thickness-normal edge-pattern-solid edge-thickness-normal edge-pattern-solid flowchart-link" style=";" data-edge="true" data-et="edge" data-id="L_RED_GREEN_0" data-points="W3sieCI6NTI0LCJ5Ijo4N30seyJ4Ijo1MjQsInkiOjExMn0seyJ4Ijo1MjQsInkiOjEzN31d" data-look="classic" marker-end="url(#my-svg_flowchart-v2-pointEnd)"/><path d="M524,191L524,195.167C524,199.333,524,207.667,524,216C524,224.333,524,232.667,524,241C524,249.333,524,257.667,524,265.333C524,273,524,280,524,283.5L524,287" id="my-svg-L_GREEN_G_UNIT_0" class="edge-thickness-normal edge-pattern-solid edge-thickness-normal edge-pattern-solid flowchart-link" style=";" data-edge="true" data-et="edge" data-id="L_GREEN_G_UNIT_0" data-points="W3sieCI6NTI0LCJ5IjoxOTF9LHsieCI6NTI0LCJ5IjoyMTZ9LHsieCI6NTI0LCJ5IjoyNDF9LHsieCI6NTI0LCJ5IjoyNjZ9LHsieCI6NTI0LCJ5IjoyOTF9XQ==" data-look="classic" marker-end="url(#my-svg_flowchart-v2-pointEnd)"/><path d="M524,345L524,349.167C524,353.333,524,361.667,524,369.333C524,377,524,384,524,387.5L524,391" id="my-svg-L_G_UNIT_G_FMT_0" class="edge-thickness-normal edge-pattern-solid edge-thickness-normal edge-pattern-solid flowchart-link" style=";" data-edge="true" data-et="edge" data-id="L_G_UNIT_G_FMT_0" data-points="W3sieCI6NTI0LCJ5IjozNDV9LHsieCI6NTI0LCJ5IjozNzB9LHsieCI6NTI0LCJ5IjozOTV9XQ==" data-look="classic" marker-end="url(#my-svg_flowchart-v2-pointEnd)"/><path d="M524,449L524,453.167C524,457.333,524,465.667,524,473.333C524,481,524,488,524,491.5L524,495" id="my-svg-L_G_FMT_G_SEC1_0" class="edge-thickness-normal edge-pattern-solid edge-thickness-normal edge-pattern-solid flowchart-link" style=";" data-edge="true" data-et="edge" data-id="L_G_FMT_G_SEC1_0" data-points="W3sieCI6NTI0LCJ5Ijo0NDl9LHsieCI6NTI0LCJ5Ijo0NzR9LHsieCI6NTI0LCJ5Ijo0OTl9XQ==" data-look="classic" marker-end="url(#my-svg_flowchart-v2-pointEnd)"/><path d="M524,577L524,581.167C524,585.333,524,593.667,524,601.333C524,609,524,616,524,619.5L524,623" id="my-svg-L_G_SEC1_G_AB_0" class="edge-thickness-normal edge-pattern-solid edge-thickness-normal edge-pattern-solid flowchart-link" style=";" data-edge="true" data-et="edge" data-id="L_G_SEC1_G_AB_0" data-points="W3sieCI6NTI0LCJ5Ijo1Nzd9LHsieCI6NTI0LCJ5Ijo2MDJ9LHsieCI6NTI0LCJ5Ijo2Mjd9XQ==" data-look="classic" marker-end="url(#my-svg_flowchart-v2-pointEnd)"/><path d="M467.633,705L461.611,709.167C455.589,713.333,443.544,721.667,437.522,732C431.5,742.333,431.5,754.667,431.5,767C431.5,779.333,431.5,791.667,431.5,801.333C431.5,811,431.5,818,431.5,821.5L431.5,825" id="my-svg-L_G_AB_G_INT_0" class="edge-thickness-normal edge-pattern-solid edge-thickness-normal edge-pattern-solid flowchart-link" style=";" data-edge="true" data-et="edge" data-id="L_G_AB_G_INT_0" data-points="W3sieCI6NDY3LjYzMjgxMjUsInkiOjcwNX0seyJ4Ijo0MzEuNSwieSI6NzMwfSx7IngiOjQzMS41LCJ5Ijo3Njd9LHsieCI6NDMxLjUsInkiOjgwNH0seyJ4Ijo0MzEuNSwieSI6ODI5fV0=" data-look="classic" marker-end="url(#my-svg_flowchart-v2-pointEnd)"/><path d="M431.5,907L431.5,911.167C431.5,915.333,431.5,923.667,431.5,931.333C431.5,939,431.5,946,431.5,949.5L431.5,953" id="my-svg-L_G_INT_G_CONTRACT_0" class="edge-thickness-normal edge-pattern-solid edge-thickness-normal edge-pattern-solid flowchart-link" style=";" data-edge="true" data-et="edge" data-id="L_G_INT_G_CONTRACT_0" data-points="W3sieCI6NDMxLjUsInkiOjkwN30seyJ4Ijo0MzEuNSwieSI6OTMyfSx7IngiOjQzMS41LCJ5Ijo5NTd9XQ==" data-look="classic" marker-end="url(#my-svg_flowchart-v2-pointEnd)"/><path d="M431.5,1035L431.5,1039.167C431.5,1043.333,431.5,1051.667,431.5,1059.333C431.5,1067,431.5,1074,431.5,1077.5L431.5,1081" id="my-svg-L_G_CONTRACT_G_DECOUP_0" class="edge-thickness-normal edge-pattern-solid edge-thickness-normal edge-pattern-solid flowchart-link" style=";" data-edge="true" data-et="edge" data-id="L_G_CONTRACT_G_DECOUP_0" data-points="W3sieCI6NDMxLjUsInkiOjEwMzV9LHsieCI6NDMxLjUsInkiOjEwNjB9LHsieCI6NDMxLjUsInkiOjEwODV9XQ==" data-look="classic" marker-end="url(#my-svg_flowchart-v2-pointEnd)"/><path d="M431.5,1163L431.5,1167.167C431.5,1171.333,431.5,1179.667,431.5,1187.333C431.5,1195,431.5,1202,431.5,1205.5L431.5,1209" id="my-svg-L_G_DECOUP_G_QG_0" class="edge-thickness-normal edge-pattern-solid edge-thickness-normal edge-pattern-solid flowchart-link" style=";" data-edge="true" data-et="edge" data-id="L_G_DECOUP_G_QG_0" data-points="W3sieCI6NDMxLjUsInkiOjExNjN9LHsieCI6NDMxLjUsInkiOjExODh9LHsieCI6NDMxLjUsInkiOjEyMTN9XQ==" data-look="classic" marker-end="url(#my-svg_flowchart-v2-pointEnd)"/><path d="M360.813,1291L353.26,1295.167C345.708,1299.333,330.604,1307.667,323.052,1318C315.5,1328.333,315.5,1340.667,315.5,1353C315.5,1365.333,315.5,1377.667,315.5,1387.333C315.5,1397,315.5,1404,315.5,1407.5L315.5,1411" id="my-svg-L_G_QG_G_E2E_0" class="edge-thickness-normal edge-pattern-solid edge-thickness-normal edge-pattern-solid flowchart-link" style=";" data-edge="true" data-et="edge" data-id="L_G_QG_G_E2E_0" data-points="W3sieCI6MzYwLjgxMjUsInkiOjEyOTF9LHsieCI6MzE1LjUsInkiOjEzMTZ9LHsieCI6MzE1LjUsInkiOjEzNTN9LHsieCI6MzE1LjUsInkiOjEzOTB9LHsieCI6MzE1LjUsInkiOjE0MTV9XQ==" data-look="classic" marker-end="url(#my-svg_flowchart-v2-pointEnd)"/><path d="M315.5,1469L315.5,1473.167C315.5,1477.333,315.5,1485.667,315.5,1493.333C315.5,1501,315.5,1508,315.5,1511.5L315.5,1515" id="my-svg-L_G_E2E_G_FULLAUTO_0" class="edge-thickness-normal edge-pattern-solid edge-thickness-normal edge-pattern-solid flowchart-link" style=";" data-edge="true" data-et="edge" data-id="L_G_E2E_G_FULLAUTO_0" data-points="W3sieCI6MzE1LjUsInkiOjE0Njl9LHsieCI6MzE1LjUsInkiOjE0OTR9LHsieCI6MzE1LjUsInkiOjE1MTl9XQ==" data-look="classic" marker-end="url(#my-svg_flowchart-v2-pointEnd)"/><path d="M315.5,1597L315.5,1601.167C315.5,1605.333,315.5,1613.667,315.5,1621.333C315.5,1629,315.5,1636,315.5,1639.5L315.5,1643" id="my-svg-L_G_FULLAUTO_G_UIUX_0" class="edge-thickness-normal edge-pattern-solid edge-thickness-normal edge-pattern-solid flowchart-link" style=";" data-edge="true" data-et="edge" data-id="L_G_FULLAUTO_G_UIUX_0" data-points="W3sieCI6MzE1LjUsInkiOjE1OTd9LHsieCI6MzE1LjUsInkiOjE2MjJ9LHsieCI6MzE1LjUsInkiOjE2NDd9XQ==" data-look="classic" marker-end="url(#my-svg_flowchart-v2-pointEnd)"/><path d="M315.5,1701L315.5,1705.167C315.5,1709.333,315.5,1717.667,315.5,1725.333C315.5,1733,315.5,1740,315.5,1743.5L315.5,1747" id="my-svg-L_G_UIUX_G_CH_0" class="edge-thickness-normal edge-pattern-solid edge-thickness-normal edge-pattern-solid flowchart-link" style=";" data-edge="true" data-et="edge" data-id="L_G_UIUX_G_CH_0" data-points="W3sieCI6MzE1LjUsInkiOjE3MDF9LHsieCI6MzE1LjUsInkiOjE3MjZ9LHsieCI6MzE1LjUsInkiOjE3NTF9XQ==" data-look="classic" marker-end="url(#my-svg_flowchart-v2-pointEnd)"/><path d="M315.5,1829L315.5,1833.167C315.5,1837.333,315.5,1845.667,315.5,1853.333C315.5,1861,315.5,1868,315.5,1871.5L315.5,1875" id="my-svg-L_G_CH_G_QA_0" class="edge-thickness-normal edge-pattern-solid edge-thickness-normal edge-pattern-solid flowchart-link" style=";" data-edge="true" data-et="edge" data-id="L_G_CH_G_QA_0" data-points="W3sieCI6MzE1LjUsInkiOjE4Mjl9LHsieCI6MzE1LjUsInkiOjE4NTR9LHsieCI6MzE1LjUsInkiOjE4Nzl9XQ==" data-look="classic" marker-end="url(#my-svg_flowchart-v2-pointEnd)"/><path d="M265.227,1957L259.855,1961.167C254.484,1965.333,243.742,1973.667,238.371,1981.333C233,1989,233,1996,233,1999.5L233,2003" id="my-svg-L_G_QA_G_PERF_0" class="edge-thickness-normal edge-pattern-solid edge-thickness-normal edge-pattern-solid flowchart-link" style=";" data-edge="true" data-et="edge" data-id="L_G_QA_G_PERF_0" data-points="W3sieCI6MjY1LjIyNjU2MjUsInkiOjE5NTd9LHsieCI6MjMzLCJ5IjoxOTgyfSx7IngiOjIzMywieSI6MjAwN31d" data-look="classic" marker-end="url(#my-svg_flowchart-v2-pointEnd)"/><path d="M233,2085L233,2091.167C233,2097.333,233,2109.667,233,2121.333C233,2133,233,2144,233,2149.5L233,2155" id="my-svg-L_G_PERF_G_LOAD_0" class="edge-thickness-normal edge-pattern-solid edge-thickness-normal edge-pattern-solid flowchart-link" style=";" data-edge="true" data-et="edge" data-id="L_G_PERF_G_LOAD_0" data-points="W3sieCI6MjMzLCJ5IjoyMDg1fSx7IngiOjIzMywieSI6MjEyMn0seyJ4IjoyMzMsInkiOjIxNTl9XQ==" data-look="classic" marker-end="url(#my-svg_flowchart-v2-pointEnd)"/><path d="M202.4,2261L197.5,2269.167C192.6,2277.333,182.8,2293.667,177.9,2309.333C173,2325,173,2340,173,2347.5L173,2355" id="my-svg-L_G_LOAD_G_REVIEW_0" class="edge-thickness-normal edge-pattern-solid edge-thickness-normal edge-pattern-solid flowchart-link" style=";" data-edge="true" data-et="edge" data-id="L_G_LOAD_G_REVIEW_0" data-points="W3sieCI6MjAyLjQsInkiOjIyNjF9LHsieCI6MTczLCJ5IjoyMzEwfSx7IngiOjE3MywieSI6MjM1OX1d" data-look="classic" marker-end="url(#my-svg_flowchart-v2-pointEnd)"/><path d="M173,2437L173,2441.167C173,2445.333,173,2453.667,173,2464C173,2474.333,173,2486.667,173,2498.333C173,2510,173,2521,173,2526.5L173,2532" id="my-svg-L_G_REVIEW_TAG_0" class="edge-thickness-normal edge-pattern-solid edge-thickness-normal edge-pattern-solid flowchart-link" style=";" data-edge="true" data-et="edge" data-id="L_G_REVIEW_TAG_0" data-points="W3sieCI6MTczLCJ5IjoyNDM3fSx7IngiOjE3MywieSI6MjQ2Mn0seyJ4IjoxNzMsInkiOjI0OTl9LHsieCI6MTczLCJ5IjoyNTM2fV0=" data-look="classic" marker-end="url(#my-svg_flowchart-v2-pointEnd)"/><path d="M654,696.365L678,701.971C702,707.577,750,718.788,774,730.561C798,742.333,798,754.667,798,767C798,779.333,798,791.667,798,808.5C798,825.333,798,846.667,798,868C798,889.333,798,910.667,798,932C798,953.333,798,974.667,798,996C798,1017.333,798,1038.667,798,1060C798,1081.333,798,1102.667,798,1124C798,1145.333,798,1166.667,798,1188C798,1209.333,798,1230.667,798,1252C798,1273.333,798,1294.667,798,1311.5C798,1328.333,798,1340.667,798,1353C798,1365.333,798,1377.667,798,1392.5C798,1407.333,798,1424.667,798,1442C798,1459.333,798,1476.667,798,1496C798,1515.333,798,1536.667,798,1558C798,1579.333,798,1600.667,798,1620C798,1639.333,798,1656.667,798,1674C798,1691.333,798,1708.667,798,1728C798,1747.333,798,1768.667,798,1790C798,1811.333,798,1832.667,798,1854C798,1875.333,798,1896.667,798,1918C798,1939.333,798,1960.667,798,1982C798,2003.333,798,2024.667,798,2048C798,2071.333,798,2096.667,798,2124C798,2151.333,798,2180.667,798,2212C798,2243.333,798,2276.667,792.823,2304.231C787.646,2331.796,777.293,2353.591,772.116,2364.489L766.939,2375.387" id="my-svg-L_G_AB_BLOCK_0" class="edge-thickness-normal edge-pattern-dotted edge-thickness-normal edge-pattern-solid flowchart-link" style=";" data-edge="true" data-et="edge" data-id="L_G_AB_BLOCK_0" data-points="W3sieCI6NjU0LCJ5Ijo2OTYuMzY0OTYzNTAzNjQ5Nn0seyJ4Ijo3OTgsInkiOjczMH0seyJ4Ijo3OTgsInkiOjc2N30seyJ4Ijo3OTgsInkiOjgwNH0seyJ4Ijo3OTgsInkiOjg2OH0seyJ4Ijo3OTgsInkiOjkzMn0seyJ4Ijo3OTgsInkiOjk5Nn0seyJ4Ijo3OTgsInkiOjEwNjB9LHsieCI6Nzk4LCJ5IjoxMTI0fSx7IngiOjc5OCwieSI6MTE4OH0seyJ4Ijo3OTgsInkiOjEyNTJ9LHsieCI6Nzk4LCJ5IjoxMzE2fSx7IngiOjc5OCwieSI6MTM1M30seyJ4Ijo3OTgsInkiOjEzOTB9LHsieCI6Nzk4LCJ5IjoxNDQyfSx7IngiOjc5OCwieSI6MTQ5NH0seyJ4Ijo3OTgsInkiOjE1NTh9LHsieCI6Nzk4LCJ5IjoxNjIyfSx7IngiOjc5OCwieSI6MTY3NH0seyJ4Ijo3OTgsInkiOjE3MjZ9LHsieCI6Nzk4LCJ5IjoxNzkwfSx7IngiOjc5OCwieSI6MTg1NH0seyJ4Ijo3OTgsInkiOjE5MTh9LHsieCI6Nzk4LCJ5IjoxOTgyfSx7IngiOjc5OCwieSI6MjA0Nn0seyJ4Ijo3OTgsInkiOjIxMjJ9LHsieCI6Nzk4LCJ5IjoyMjEwfSx7IngiOjc5OCwieSI6MjMxMH0seyJ4Ijo3NjUuMjIzMDExMzYzNjM2NCwieSI6MjM3OX1d" data-look="classic" marker-end="url(#my-svg_flowchart-v2-pointEnd)"/><path d="M561.5,1287.978L578.375,1292.649C595.25,1297.319,629,1306.659,645.875,1317.496C662.75,1328.333,662.75,1340.667,662.75,1353C662.75,1365.333,662.75,1377.667,662.75,1392.5C662.75,1407.333,662.75,1424.667,662.75,1442C662.75,1459.333,662.75,1476.667,662.75,1496C662.75,1515.333,662.75,1536.667,662.75,1558C662.75,1579.333,662.75,1600.667,662.75,1620C662.75,1639.333,662.75,1656.667,662.75,1674C662.75,1691.333,662.75,1708.667,662.75,1728C662.75,1747.333,662.75,1768.667,662.75,1790C662.75,1811.333,662.75,1832.667,662.75,1854C662.75,1875.333,662.75,1896.667,662.75,1918C662.75,1939.333,662.75,1960.667,662.75,1982C662.75,2003.333,662.75,2024.667,662.75,2048C662.75,2071.333,662.75,2096.667,662.75,2124C662.75,2151.333,662.75,2180.667,662.75,2212C662.75,2243.333,662.75,2276.667,674.351,2304.374C685.952,2332.081,709.154,2354.162,720.754,2365.202L732.355,2376.242" id="my-svg-L_G_QG_BLOCK_0" class="edge-thickness-normal edge-pattern-dotted edge-thickness-normal edge-pattern-solid flowchart-link" style=";" data-edge="true" data-et="edge" data-id="L_G_QG_BLOCK_0" data-points="W3sieCI6NTYxLjUsInkiOjEyODcuOTc4Mzc4Mzc4Mzc4NX0seyJ4Ijo2NjIuNzUsInkiOjEzMTZ9LHsieCI6NjYyLjc1LCJ5IjoxMzUzfSx7IngiOjY2Mi43NSwieSI6MTM5MH0seyJ4Ijo2NjIuNzUsInkiOjE0NDJ9LHsieCI6NjYyLjc1LCJ5IjoxNDk0fSx7IngiOjY2Mi43NSwieSI6MTU1OH0seyJ4Ijo2NjIuNzUsInkiOjE2MjJ9LHsieCI6NjYyLjc1LCJ5IjoxNjc0fSx7IngiOjY2Mi43NSwieSI6MTcyNn0seyJ4Ijo2NjIuNzUsInkiOjE3OTB9LHsieCI6NjYyLjc1LCJ5IjoxODU0fSx7IngiOjY2Mi43NSwieSI6MTkxOH0seyJ4Ijo2NjIuNzUsInkiOjE5ODJ9LHsieCI6NjYyLjc1LCJ5IjoyMDQ2fSx7IngiOjY2Mi43NSwieSI6MjEyMn0seyJ4Ijo2NjIuNzUsInkiOjIyMTB9LHsieCI6NjYyLjc1LCJ5IjoyMzEwfSx7IngiOjczNS4yNTI4NDA5MDkwOTA5LCJ5IjoyMzc5fV0=" data-look="classic" marker-end="url(#my-svg_flowchart-v2-pointEnd)"/><path d="M388.625,1957L396.438,1961.167C404.25,1965.333,419.875,1973.667,427.688,1988.5C435.5,2003.333,435.5,2024.667,435.5,2048C435.5,2071.333,435.5,2096.667,435.5,2124C435.5,2151.333,435.5,2180.667,435.5,2212C435.5,2243.333,435.5,2276.667,476.424,2304.656C517.347,2332.644,599.194,2355.289,640.118,2366.611L681.041,2377.933" id="my-svg-L_G_QA_BLOCK_0" class="edge-thickness-normal edge-pattern-dotted edge-thickness-normal edge-pattern-solid flowchart-link" style=";" data-edge="true" data-et="edge" data-id="L_G_QA_BLOCK_0" data-points="W3sieCI6Mzg4LjYyNSwieSI6MTk1N30seyJ4Ijo0MzUuNSwieSI6MTk4Mn0seyJ4Ijo0MzUuNSwieSI6MjA0Nn0seyJ4Ijo0MzUuNSwieSI6MjEyMn0seyJ4Ijo0MzUuNSwieSI6MjIxMH0seyJ4Ijo0MzUuNSwieSI6MjMxMH0seyJ4Ijo2ODQuODk2MzA2ODE4MTgxOSwieSI6MjM3OX1d" data-look="classic" marker-end="url(#my-svg_flowchart-v2-pointEnd)"/><path d="M263.6,2261L268.5,2269.167C273.4,2277.333,283.2,2293.667,348.82,2313.46C414.44,2333.253,535.881,2356.505,596.601,2368.131L657.321,2379.758" id="my-svg-L_G_LOAD_BLOCK_0" class="edge-thickness-normal edge-pattern-dotted edge-thickness-normal edge-pattern-solid flowchart-link" style=";" data-edge="true" data-et="edge" data-id="L_G_LOAD_BLOCK_0" data-points="W3sieCI6MjYzLjYsInkiOjIyNjF9LHsieCI6MjkzLCJ5IjoyMzEwfSx7IngiOjY2MS4yNSwieSI6MjM4MC41MDk3MzQ5OTE4ODc0fV0=" data-look="classic" marker-end="url(#my-svg_flowchart-v2-pointEnd)"/></g><g class="edgeLabels"><g class="edgeLabel"><g class="label" data-id="L_RED_GREEN_0" transform="translate(0, 0)"><foreignObject width="0" height="0"><div xmlns="http://www.w3.org/1999/xhtml" class="labelBkg" style="display: table-cell; white-space: nowrap; line-height: 1.5; max-width: 200px; text-align: center;"><span class="edgeLabel"></span></div></foreignObject></g></g><g class="edgeLabel"><g class="label" data-id="L_GREEN_G_UNIT_0" transform="translate(0, 0)"><foreignObject width="0" height="0"><div xmlns="http://www.w3.org/1999/xhtml" class="labelBkg" style="display: table-cell; white-space: nowrap; line-height: 1.5; max-width: 200px; text-align: center;"><span class="edgeLabel"></span></div></foreignObject></g></g><g class="edgeLabel"><g class="label" data-id="L_G_UNIT_G_FMT_0" transform="translate(0, 0)"><foreignObject width="0" height="0"><div xmlns="http://www.w3.org/1999/xhtml" class="labelBkg" style="display: table-cell; white-space: nowrap; line-height: 1.5; max-width: 200px; text-align: center;"><span class="edgeLabel"></span></div></foreignObject></g></g><g class="edgeLabel"><g class="label" data-id="L_G_FMT_G_SEC1_0" transform="translate(0, 0)"><foreignObject width="0" height="0"><div xmlns="http://www.w3.org/1999/xhtml" class="labelBkg" style="display: table-cell; white-space: nowrap; line-height: 1.5; max-width: 200px; text-align: center;"><span class="edgeLabel"></span></div></foreignObject></g></g><g class="edgeLabel"><g class="label" data-id="L_G_SEC1_G_AB_0" transform="translate(0, 0)"><foreignObject width="0" height="0"><div xmlns="http://www.w3.org/1999/xhtml" class="labelBkg" style="display: table-cell; white-space: nowrap; line-height: 1.5; max-width: 200px; text-align: center;"><span class="edgeLabel"></span></div></foreignObject></g></g><g class="edgeLabel" transform="translate(431.5, 767)"><g class="label" data-id="L_G_AB_G_INT_0" transform="translate(-76.5, -12)"><foreignObject width="153" height="24"><div xmlns="http://www.w3.org/1999/xhtml" class="labelBkg" style="display: table-cell; white-space: nowrap; line-height: 1.5; max-width: 200px; text-align: center;"><span class="edgeLabel"><p>clean=0, mutation=99</p></span></div></foreignObject></g></g><g class="edgeLabel"><g class="label" data-id="L_G_INT_G_CONTRACT_0" transform="translate(0, 0)"><foreignObject width="0" height="0"><div xmlns="http://www.w3.org/1999/xhtml" class="labelBkg" style="display: table-cell; white-space: nowrap; line-height: 1.5; max-width: 200px; text-align: center;"><span class="edgeLabel"></span></div></foreignObject></g></g><g class="edgeLabel"><g class="label" data-id="L_G_CONTRACT_G_DECOUP_0" transform="translate(0, 0)"><foreignObject width="0" height="0"><div xmlns="http://www.w3.org/1999/xhtml" class="labelBkg" style="display: table-cell; white-space: nowrap; line-height: 1.5; max-width: 200px; text-align: center;"><span class="edgeLabel"></span></div></foreignObject></g></g><g class="edgeLabel"><g class="label" data-id="L_G_DECOUP_G_QG_0" transform="translate(0, 0)"><foreignObject width="0" height="0"><div xmlns="http://www.w3.org/1999/xhtml" class="labelBkg" style="display: table-cell; white-space: nowrap; line-height: 1.5; max-width: 200px; text-align: center;"><span class="edgeLabel"></span></div></foreignObject></g></g><g class="edgeLabel" transform="translate(315.5, 1353)"><g class="label" data-id="L_G_QG_G_E2E_0" transform="translate(-17, -12)"><foreignObject width="34" height="24"><div xmlns="http://www.w3.org/1999/xhtml" class="labelBkg" style="display: table-cell; white-space: nowrap; line-height: 1.5; max-width: 200px; text-align: center;"><span class="edgeLabel"><p>pass</p></span></div></foreignObject></g></g><g class="edgeLabel"><g class="label" data-id="L_G_E2E_G_FULLAUTO_0" transform="translate(0, 0)"><foreignObject width="0" height="0"><div xmlns="http://www.w3.org/1999/xhtml" class="labelBkg" style="display: table-cell; white-space: nowrap; line-height: 1.5; max-width: 200px; text-align: center;"><span class="edgeLabel"></span></div></foreignObject></g></g><g class="edgeLabel"><g class="label" data-id="L_G_FULLAUTO_G_UIUX_0" transform="translate(0, 0)"><foreignObject width="0" height="0"><div xmlns="http://www.w3.org/1999/xhtml" class="labelBkg" style="display: table-cell; white-space: nowrap; line-height: 1.5; max-width: 200px; text-align: center;"><span class="edgeLabel"></span></div></foreignObject></g></g><g class="edgeLabel"><g class="label" data-id="L_G_UIUX_G_CH_0" transform="translate(0, 0)"><foreignObject width="0" height="0"><div xmlns="http://www.w3.org/1999/xhtml" class="labelBkg" style="display: table-cell; white-space: nowrap; line-height: 1.5; max-width: 200px; text-align: center;"><span class="edgeLabel"></span></div></foreignObject></g></g><g class="edgeLabel"><g class="label" data-id="L_G_CH_G_QA_0" transform="translate(0, 0)"><foreignObject width="0" height="0"><div xmlns="http://www.w3.org/1999/xhtml" class="labelBkg" style="display: table-cell; white-space: nowrap; line-height: 1.5; max-width: 200px; text-align: center;"><span class="edgeLabel"></span></div></foreignObject></g></g><g class="edgeLabel"><g class="label" data-id="L_G_QA_G_PERF_0" transform="translate(0, 0)"><foreignObject width="0" height="0"><div xmlns="http://www.w3.org/1999/xhtml" class="labelBkg" style="display: table-cell; white-space: nowrap; line-height: 1.5; max-width: 200px; text-align: center;"><span class="edgeLabel"></span></div></foreignObject></g></g><g class="edgeLabel"><g class="label" data-id="L_G_PERF_G_LOAD_0" transform="translate(0, 0)"><foreignObject width="0" height="0"><div xmlns="http://www.w3.org/1999/xhtml" class="labelBkg" style="display: table-cell; white-space: nowrap; line-height: 1.5; max-width: 200px; text-align: center;"><span class="edgeLabel"></span></div></foreignObject></g></g><g class="edgeLabel"><g class="label" data-id="L_G_LOAD_G_REVIEW_0" transform="translate(0, 0)"><foreignObject width="0" height="0"><div xmlns="http://www.w3.org/1999/xhtml" class="labelBkg" style="display: table-cell; white-space: nowrap; line-height: 1.5; max-width: 200px; text-align: center;"><span class="edgeLabel"></span></div></foreignObject></g></g><g class="edgeLabel" transform="translate(173, 2499)"><g class="label" data-id="L_G_REVIEW_TAG_0" transform="translate(-53, -12)"><foreignObject width="106" height="24"><div xmlns="http://www.w3.org/1999/xhtml" class="labelBkg" style="display: table-cell; white-space: nowrap; line-height: 1.5; max-width: 200px; text-align: center;"><span class="edgeLabel"><p>GO + evidence</p></span></div></foreignObject></g></g><g class="edgeLabel" transform="translate(798, 1558)"><g class="label" data-id="L_G_AB_BLOCK_0" transform="translate(-65.5, -12)"><foreignObject width="131" height="24"><div xmlns="http://www.w3.org/1999/xhtml" class="labelBkg" style="display: table-cell; white-space: nowrap; line-height: 1.5; max-width: 200px; text-align: center;"><span class="edgeLabel"><p>any other outcome</p></span></div></foreignObject></g></g><g class="edgeLabel" transform="translate(662.75, 1790)"><g class="label" data-id="L_G_QG_BLOCK_0" transform="translate(-47, -12)"><foreignObject width="94" height="24"><div xmlns="http://www.w3.org/1999/xhtml" class="labelBkg" style="display: table-cell; white-space: nowrap; line-height: 1.5; max-width: 200px; text-align: center;"><span class="edgeLabel"><p>fail / high-sev</p></span></div></foreignObject></g></g><g class="edgeLabel" transform="translate(435.5, 2122)"><g class="label" data-id="L_G_QA_BLOCK_0" transform="translate(-73, -12)"><foreignObject width="146" height="24"><div xmlns="http://www.w3.org/1999/xhtml" class="labelBkg" style="display: table-cell; white-space: nowrap; line-height: 1.5; max-width: 200px; text-align: center;"><span class="edgeLabel"><p>evidence-less PASS</p></span></div></foreignObject></g></g><g class="edgeLabel" transform="translate(449.0631, 2339.88179)"><g class="label" data-id="L_G_LOAD_BLOCK_0" transform="translate(-100, -24)"><foreignObject width="200" height="48"><div xmlns="http://www.w3.org/1999/xhtml" class="labelBkg" style="display: table; white-space: break-spaces; line-height: 1.5; max-width: 200px; text-align: center; width: 200px;"><span class="edgeLabel"><p>SLO breach / data loss &gt; RPO</p></span></div></foreignObject></g></g></g><g class="nodes"><g class="node default" id="my-svg-flowchart-RED-0" data-look="classic" transform="translate(524, 60)"><rect class="basic label-container" style="" x="-102" y="-27" width="204" height="54"/><g class="label" style="" transform="translate(-72, -12)"><rect/><foreignObject width="144" height="24"><div xmlns="http://www.w3.org/1999/xhtml" style="display: table-cell; white-space: nowrap; line-height: 1.5; max-width: 200px; text-align: center;"><span class="nodeLabel"><p>RED test written first</p></span></div></foreignObject></g></g><g class="node default" id="my-svg-flowchart-GREEN-1" data-look="classic" transform="translate(524, 164)"><rect class="basic label-container" style="" x="-106.5" y="-27" width="213" height="54"/><g class="label" style="" transform="translate(-76.5, -12)"><rect/><foreignObject width="153" height="24"><div xmlns="http://www.w3.org/1999/xhtml" style="display: table-cell; white-space: nowrap; line-height: 1.5; max-width: 200px; text-align: center;"><span class="nodeLabel"><p>Implement to GREEN</p></span></div></foreignObject></g></g><g class="node default" id="my-svg-flowchart-G_UNIT-4" data-look="classic" transform="translate(524, 318)"><rect class="basic label-container" style="" x="-112" y="-27" width="224" height="54"/><g class="label" style="" transform="translate(-82, -12)"><rect/><foreignObject width="164" height="24"><div xmlns="http://www.w3.org/1999/xhtml" style="display: table-cell; white-space: nowrap; line-height: 1.5; max-width: 200px; text-align: center;"><span class="nodeLabel"><p>G-UNIT race-clean unit</p></span></div></foreignObject></g></g><g class="node default" id="my-svg-flowchart-G_FMT-5" data-look="classic" transform="translate(524, 422)"><rect class="basic label-container" style="" x="-104" y="-27" width="208" height="54"/><g class="label" style="" transform="translate(-74, -12)"><rect/><foreignObject width="148" height="24"><div xmlns="http://www.w3.org/1999/xhtml" style="display: table-cell; white-space: nowrap; line-height: 1.5; max-width: 200px; text-align: center;"><span class="nodeLabel"><p>G-STATIC fmt/vet/lint</p></span></div></foreignObject></g></g><g class="node default" id="my-svg-flowchart-G_SEC1-6" data-look="classic" transform="translate(524, 538)"><rect class="basic label-container" style="" x="-130" y="-39" width="260" height="78"/><g class="label" style="" transform="translate(-100, -24)"><rect/><foreignObject width="200" height="48"><div xmlns="http://www.w3.org/1999/xhtml" style="display: table; white-space: break-spaces; line-height: 1.5; max-width: 200px; text-align: center; width: 200px;"><span class="nodeLabel"><p>G-SECRET secret-leak scan</p></span></div></foreignObject></g></g><g class="node default" id="my-svg-flowchart-G_AB-7" data-look="classic" transform="translate(524, 666)"><rect class="basic label-container" style="" x="-130" y="-39" width="260" height="78"/><g class="label" style="" transform="translate(-100, -24)"><rect/><foreignObject width="200" height="48"><div xmlns="http://www.w3.org/1999/xhtml" style="display: table; white-space: break-spaces; line-height: 1.5; max-width: 200px; text-align: center; width: 200px;"><span class="nodeLabel"><p>G-ANTIBLUFF paired mutation exit0/exit99</p></span></div></foreignObject></g></g><g class="node default" id="my-svg-flowchart-G_INT-8" data-look="classic" transform="translate(431.5, 868)"><rect class="basic label-container" style="" x="-130" y="-39" width="260" height="78"/><g class="label" style="" transform="translate(-100, -24)"><rect/><foreignObject width="200" height="48"><div xmlns="http://www.w3.org/1999/xhtml" style="display: table; white-space: break-spaces; line-height: 1.5; max-width: 200px; text-align: center; width: 200px;"><span class="nodeLabel"><p>G-INT real Postgres/NATS/MinIO</p></span></div></foreignObject></g></g><g class="node default" id="my-svg-flowchart-G_CONTRACT-9" data-look="classic" transform="translate(431.5, 996)"><rect class="basic label-container" style="" x="-130" y="-39" width="260" height="78"/><g class="label" style="" transform="translate(-100, -24)"><rect/><foreignObject width="200" height="48"><div xmlns="http://www.w3.org/1999/xhtml" style="display: table; white-space: break-spaces; line-height: 1.5; max-width: 200px; text-align: center; width: 200px;"><span class="nodeLabel"><p>G-CONTRACT OpenAPI + WS envelope</p></span></div></foreignObject></g></g><g class="node default" id="my-svg-flowchart-G_DECOUP-10" data-look="classic" transform="translate(431.5, 1124)"><rect class="basic label-container" style="" x="-130" y="-39" width="260" height="78"/><g class="label" style="" transform="translate(-100, -24)"><rect/><foreignObject width="200" height="48"><div xmlns="http://www.w3.org/1999/xhtml" style="display: table; white-space: break-spaces; line-height: 1.5; max-width: 200px; text-align: center; width: 200px;"><span class="nodeLabel"><p>G-DECOUPLE config-injected reuse</p></span></div></foreignObject></g></g><g class="node default" id="my-svg-flowchart-G_QG-11" data-look="classic" transform="translate(431.5, 1252)"><rect class="basic label-container" style="" x="-130" y="-39" width="260" height="78"/><g class="label" style="" transform="translate(-100, -24)"><rect/><foreignObject width="200" height="48"><div xmlns="http://www.w3.org/1999/xhtml" style="display: table; white-space: break-spaces; line-height: 1.5; max-width: 200px; text-align: center; width: 200px;"><span class="nodeLabel"><p>G-SONAR + G-SNYK quality gate</p></span></div></foreignObject></g></g><g class="node default" id="my-svg-flowchart-G_E2E-12" data-look="classic" transform="translate(315.5, 1442)"><rect class="basic label-container" style="" x="-119" y="-27" width="238" height="54"/><g class="label" style="" transform="translate(-89, -12)"><rect/><foreignObject width="178" height="24"><div xmlns="http://www.w3.org/1999/xhtml" style="display: table-cell; white-space: nowrap; line-height: 1.5; max-width: 200px; text-align: center;"><span class="nodeLabel"><p>G-E2E canonical journey</p></span></div></foreignObject></g></g><g class="node default" id="my-svg-flowchart-G_FULLAUTO-13" data-look="classic" transform="translate(315.5, 1558)"><rect class="basic label-container" style="" x="-130" y="-39" width="260" height="78"/><g class="label" style="" transform="translate(-100, -24)"><rect/><foreignObject width="200" height="48"><div xmlns="http://www.w3.org/1999/xhtml" style="display: table; white-space: break-spaces; line-height: 1.5; max-width: 200px; text-align: center; width: 200px;"><span class="nodeLabel"><p>G-FULLAUTO HelixQA autonomous</p></span></div></foreignObject></g></g><g class="node default" id="my-svg-flowchart-G_UIUX-14" data-look="classic" transform="translate(315.5, 1674)"><rect class="basic label-container" style="" x="-123.5" y="-27" width="247" height="54"/><g class="label" style="" transform="translate(-93.5, -12)"><rect/><foreignObject width="187" height="24"><div xmlns="http://www.w3.org/1999/xhtml" style="display: table-cell; white-space: nowrap; line-height: 1.5; max-width: 200px; text-align: center;"><span class="nodeLabel"><p>G-UI + G-UX visual + a11y</p></span></div></foreignObject></g></g><g class="node default" id="my-svg-flowchart-G_CH-15" data-look="classic" transform="translate(315.5, 1790)"><rect class="basic label-container" style="" x="-130" y="-39" width="260" height="78"/><g class="label" style="" transform="translate(-100, -24)"><rect/><foreignObject width="200" height="48"><div xmlns="http://www.w3.org/1999/xhtml" style="display: table; white-space: break-spaces; line-height: 1.5; max-width: 200px; text-align: center; width: 200px;"><span class="nodeLabel"><p>G-CHALLENGE banks + meta-runner</p></span></div></foreignObject></g></g><g class="node default" id="my-svg-flowchart-G_QA-16" data-look="classic" transform="translate(315.5, 1918)"><rect class="basic label-container" style="" x="-130" y="-39" width="260" height="78"/><g class="label" style="" transform="translate(-100, -24)"><rect/><foreignObject width="200" height="48"><div xmlns="http://www.w3.org/1999/xhtml" style="display: table; white-space: break-spaces; line-height: 1.5; max-width: 200px; text-align: center; width: 200px;"><span class="nodeLabel"><p>G-HELIXQA banks + evidence</p></span></div></foreignObject></g></g><g class="node default" id="my-svg-flowchart-G_PERF-17" data-look="classic" transform="translate(233, 2046)"><rect class="basic label-container" style="" x="-130" y="-39" width="260" height="78"/><g class="label" style="" transform="translate(-100, -24)"><rect/><foreignObject width="200" height="48"><div xmlns="http://www.w3.org/1999/xhtml" style="display: table; white-space: break-spaces; line-height: 1.5; max-width: 200px; text-align: center; width: 200px;"><span class="nodeLabel"><p>G-PERF + G-BENCH SLO + baseline</p></span></div></foreignObject></g></g><g class="node default" id="my-svg-flowchart-G_LOAD-18" data-look="classic" transform="translate(233, 2210)"><rect class="basic label-container" style="" x="-130" y="-51" width="260" height="102"/><g class="label" style="" transform="translate(-100, -36)"><rect/><foreignObject width="200" height="72"><div xmlns="http://www.w3.org/1999/xhtml" style="display: table; white-space: break-spaces; line-height: 1.5; max-width: 200px; text-align: center; width: 200px;"><span class="nodeLabel"><p>G-SCALE + G-STRESS + G-DDOS + G-CHAOS + G-DR</p></span></div></foreignObject></g></g><g class="node default" id="my-svg-flowchart-G_REVIEW-19" data-look="classic" transform="translate(173, 2398)"><rect class="basic label-container" style="" x="-130" y="-39" width="260" height="78"/><g class="label" style="" transform="translate(-100, -24)"><rect/><foreignObject width="200" height="48"><div xmlns="http://www.w3.org/1999/xhtml" style="display: table; white-space: break-spaces; line-height: 1.5; max-width: 200px; text-align: center; width: 200px;"><span class="nodeLabel"><p>G-REVIEW independent AI GO</p></span></div></foreignObject></g></g><g class="node default" id="my-svg-flowchart-TAG-42" data-look="classic" transform="translate(173, 2575)"><rect class="basic label-container" style="" x="-130" y="-39" width="260" height="78"/><g class="label" style="" transform="translate(-100, -24)"><rect/><foreignObject width="200" height="48"><div xmlns="http://www.w3.org/1999/xhtml" style="display: table; white-space: break-spaces; line-height: 1.5; max-width: 200px; text-align: center; width: 200px;"><span class="nodeLabel"><p>Tag PREFIX-version -&gt; 4 upstreams</p></span></div></foreignObject></g></g><g class="node default" id="my-svg-flowchart-BLOCK-44" data-look="classic" transform="translate(755.25, 2398)"><polygon points="0,0 173,0 173,-39 0,-39 0,0 -8,0 181,0 181,-39 -8,-39 -8,0" class="label-container" transform="translate(-86.5,19.5)"/><g class="label" style="" transform="translate(-79, -12)"><rect/><foreignObject width="158" height="24"><div xmlns="http://www.w3.org/1999/xhtml" style="display: table-cell; white-space: nowrap; line-height: 1.5; max-width: 200px; text-align: center;"><span class="nodeLabel"><p>RELEASE BLOCKER</p></span></div></foreignObject></g></g></g></g></g><defs><filter id="my-svg-drop-shadow" height="130%" width="130%"><feDropShadow dx="4" dy="4" stdDeviation="0" flood-opacity="0.06" flood-color="#000000"/></filter></defs><defs><filter id="my-svg-drop-shadow-small" height="150%" width="150%"><feDropShadow dx="2" dy="2" stdDeviation="0" flood-opacity="0.06" flood-color="#000000"/></filter></defs></svg>