<?xml version="1.0" encoding="UTF-8"?>
<!-- Helix Thready — launcher icon, DARK variant (tuned for dark home screens / #020817 UIs).
     Same master geometry as launcher-icon.svg (letter-free double-helix + thread motif).
     Fill: brand #B6E376 → brand-2(dark) #B7EBD6 (logo lime + the dark-surface teal median;
     both VERIFIED — design-system.md §3.2). Transparent background. -->
<svg xmlns="http://www.w3.org/2000/svg" viewBox="0 0 1024 1024" width="1024" height="1024" role="img" aria-labelledby="t">
  <title id="t">Helix Thready</title>
  <defs>
    <linearGradient id="brandDark" x1="200" y1="220" x2="820" y2="800" gradientUnits="userSpaceOnUse">
      <stop offset="0" stop-color="#B6E376"/>
      <stop offset="1" stop-color="#B7EBD6"/>
    </linearGradient>
  </defs>
  <path fill="url(#brandDark)" fill-rule="nonzero" d="M279.7,661.2L272.3,634.3L267.9,609.7L265.8,585.3L266.0,561.3L268.2,538.1L272.5,515.7L278.7,494.2L286.6,473.9L296.1,454.9L307.1,437.2L319.3,421.0L332.6,406.3L346.9,393.2L361.9,381.7L377.6,371.9L393.7,363.7L410.1,357.2L426.7,352.3L443.2,349.0L459.6,347.3L475.7,347.1L491.4,348.3L506.5,350.9L521.0,354.7L534.8,359.7L547.8,365.9L559.8,373.0L571.0,381.0L581.1,389.8L590.1,399.2L598.1,409.2L605.0,419.6L610.7,430.3L615.4,441.3L619.0,452.4L621.5,463.6L622.9,474.6L623.3,485.5L622.8,496.2L621.3,506.5L618.9,516.4L615.7,525.8L611.8,534.8L607.2,543.1L601.9,550.8L595.3,558.7A25.0,25.0 0 0 1 632.2,592.5L641.1,583.5L650.0,572.6L658.0,560.7L665.0,547.9L671.0,534.1L675.7,519.6L679.2,504.4L681.2,488.6L681.8,472.3L680.9,455.7L678.5,439.0L674.4,422.2L668.6,405.5L661.2,389.0L652.1,373.0L641.4,357.6L629.0,342.9L615.0,329.2L599.6,316.6L582.7,305.2L564.4,295.2L544.9,286.8L524.3,280.1L502.8,275.2L480.4,272.2L457.4,271.3L433.9,272.6L410.2,276.0L386.5,281.8L362.9,289.9L339.6,300.3L317.0,313.1L295.2,328.2L274.5,345.6L255.1,365.3L237.2,387.0L221.1,410.8L207.0,436.5L195.0,463.9L185.5,492.9L178.5,523.2L174.2,554.7L172.8,587.0L174.5,620.1L179.2,653.5L186.6,684.8A48.0,48.0 0 0 1 279.7,661.2Z M744.3,362.8L751.7,389.7L756.1,414.3L758.2,438.7L758.0,462.7L755.8,485.9L751.5,508.3L745.3,529.8L737.4,550.1L727.9,569.1L716.9,586.8L704.7,603.0L691.4,617.7L677.1,630.8L662.1,642.3L646.4,652.1L630.3,660.3L613.9,666.8L597.3,671.7L580.8,675.0L564.4,676.7L548.3,676.9L532.6,675.7L517.5,673.1L503.0,669.3L489.2,664.3L476.2,658.1L464.2,651.0L453.0,643.0L442.9,634.2L433.9,624.8L425.9,614.8L419.0,604.4L413.3,593.7L408.6,582.7L405.0,571.6L402.5,560.4L401.1,549.4L400.7,538.5L401.2,527.8L402.7,517.5L405.1,507.6L408.3,498.2L412.2,489.2L416.8,480.9L422.1,473.2L428.7,465.3A25.0,25.0 0 0 1 391.8,431.5L382.9,440.5L374.0,451.4L366.0,463.3L359.0,476.1L353.0,489.9L348.3,504.4L344.8,519.6L342.8,535.4L342.2,551.7L343.1,568.3L345.5,585.0L349.6,601.8L355.4,618.5L362.8,635.0L371.9,651.0L382.6,666.4L395.0,681.1L409.0,694.8L424.4,707.4L441.3,718.8L459.6,728.8L479.1,737.2L499.7,743.9L521.2,748.8L543.6,751.8L566.6,752.7L590.1,751.4L613.8,748.0L637.5,742.2L661.1,734.1L684.4,723.7L707.0,710.9L728.8,695.8L749.5,678.4L768.9,658.7L786.8,637.0L802.9,613.2L817.0,587.5L829.0,560.1L838.5,531.1L845.5,500.8L849.8,469.3L851.2,437.0L849.5,403.9L844.8,370.5L837.4,339.2A48.0,48.0 0 0 1 744.3,362.8Z"/>
</svg>
