<svg id="my-svg" width="100%" xmlns="http://www.w3.org/2000/svg" xmlns:xlink="http://www.w3.org/1999/xlink" class="flowchart" style="max-width: 1111px; background-color: white;" viewBox="0 0 1111 1215" role="graphics-document document" aria-roledescription="flowchart-v2"><style>#my-svg{font-family:"trebuchet ms",verdana,arial,sans-serif;font-size:16px;fill:#333;}@keyframes edge-animation-frame{from{stroke-dashoffset:0;}}@keyframes dash{to{stroke-dashoffset:0;}}#my-svg .edge-animation-slow{stroke-dasharray:9,5!important;stroke-dashoffset:900;animation:dash 50s linear infinite;stroke-linecap:round;}#my-svg .edge-animation-fast{stroke-dasharray:9,5!important;stroke-dashoffset:900;animation:dash 20s linear infinite;stroke-linecap:round;}#my-svg .error-icon{fill:#552222;}#my-svg .error-text{fill:#552222;stroke:#552222;}#my-svg .edge-thickness-normal{stroke-width:1px;}#my-svg .edge-thickness-thick{stroke-width:3.5px;}#my-svg .edge-pattern-solid{stroke-dasharray:0;}#my-svg .edge-thickness-invisible{stroke-width:0;fill:none;}#my-svg .edge-pattern-dashed{stroke-dasharray:3;}#my-svg .edge-pattern-dotted{stroke-dasharray:2;}#my-svg .marker{fill:#333333;stroke:#333333;}#my-svg .marker.cross{stroke:#333333;}#my-svg svg{font-family:"trebuchet ms",verdana,arial,sans-serif;font-size:16px;}#my-svg p{margin:0;}#my-svg .label{font-family:"trebuchet ms",verdana,arial,sans-serif;color:#333;}#my-svg .cluster-label text{fill:#333;}#my-svg .cluster-label span{color:#333;}#my-svg .cluster-label span p{background-color:transparent;}#my-svg .label text,#my-svg span{fill:#333;color:#333;}#my-svg .node rect,#my-svg .node circle,#my-svg .node ellipse,#my-svg .node polygon,#my-svg .node path{fill:#ECECFF;stroke:#9370DB;stroke-width:1px;}#my-svg .rough-node .label text,#my-svg .node .label text,#my-svg .image-shape .label,#my-svg .icon-shape .label{text-anchor:middle;}#my-svg .node .katex path{fill:#000;stroke:#000;stroke-width:1px;}#my-svg .rough-node .label,#my-svg .node .label,#my-svg .image-shape .label,#my-svg .icon-shape .label{text-align:center;}#my-svg .node.clickable{cursor:pointer;}#my-svg .root .anchor path{fill:#333333!important;stroke-width:0;stroke:#333333;}#my-svg .arrowheadPath{fill:#333333;}#my-svg .edgePath .path{stroke:#333333;stroke-width:1px;}#my-svg .flowchart-link{stroke:#333333;fill:none;}#my-svg .edgeLabel{background-color:rgba(232,232,232, 0.8);text-align:center;}#my-svg .edgeLabel p{background-color:rgba(232,232,232, 0.8);}#my-svg .edgeLabel rect{opacity:0.5;background-color:rgba(232,232,232, 0.8);fill:rgba(232,232,232, 0.8);}#my-svg .labelBkg{background-color:rgba(232, 232, 232, 0.5);}#my-svg .cluster rect{fill:#ffffde;stroke:#aaaa33;stroke-width:1px;}#my-svg .cluster text{fill:#333;}#my-svg .cluster span{color:#333;}#my-svg div.mermaidTooltip{position:absolute;text-align:center;max-width:200px;padding:2px;font-family:"trebuchet ms",verdana,arial,sans-serif;font-size:12px;background:hsl(80, 100%, 96.2745098039%);border:1px solid #aaaa33;border-radius:2px;pointer-events:none;z-index:100;}#my-svg .flowchartTitleText{text-anchor:middle;font-size:18px;fill:#333;}#my-svg rect.text{fill:none;stroke-width:0;}#my-svg .icon-shape,#my-svg .image-shape{background-color:rgba(232,232,232, 0.8);text-align:center;}#my-svg .icon-shape p,#my-svg .image-shape p{background-color:rgba(232,232,232, 0.8);padding:2px;}#my-svg .icon-shape .label rect,#my-svg .image-shape .label rect{opacity:0.5;background-color:rgba(232,232,232, 0.8);fill:rgba(232,232,232, 0.8);}#my-svg .label-icon{display:inline-block;height:1em;overflow:visible;vertical-align:-0.125em;}#my-svg .node .label-icon path{fill:currentColor;stroke:revert;stroke-width:revert;}#my-svg .node .neo-node{stroke:#9370DB;}#my-svg [data-look="neo"].node rect,#my-svg [data-look="neo"].cluster rect,#my-svg [data-look="neo"].node polygon{stroke:#9370DB;filter:drop-shadow(1px 2px 2px rgba(185, 185, 185, 1));}#my-svg [data-look="neo"].swimlane.cluster rect{filter:none;}#my-svg [data-look="neo"].node path{stroke:#9370DB;stroke-width:1px;}#my-svg [data-look="neo"].node .outer-path{filter:drop-shadow(1px 2px 2px rgba(185, 185, 185, 1));}#my-svg [data-look="neo"].node .neo-line path{stroke:#9370DB;filter:none;}#my-svg [data-look="neo"].node circle{stroke:#9370DB;filter:drop-shadow(1px 2px 2px rgba(185, 185, 185, 1));}#my-svg [data-look="neo"].node circle .state-start{fill:#000000;}#my-svg [data-look="neo"].icon-shape .icon{fill:#9370DB;filter:drop-shadow(1px 2px 2px rgba(185, 185, 185, 1));}#my-svg [data-look="neo"].icon-shape .icon-neo path{stroke:#9370DB;filter:drop-shadow(1px 2px 2px rgba(185, 185, 185, 1));}#my-svg :root{--mermaid-font-family:"trebuchet ms",verdana,arial,sans-serif;}</style><g><marker id="my-svg_flowchart-v2-pointEnd" class="marker flowchart-v2" viewBox="0 0 10 10" refX="5" refY="5" markerUnits="userSpaceOnUse" markerWidth="8" markerHeight="8" orient="auto"><path d="M 0 0 L 10 5 L 0 10 z" class="arrowMarkerPath" style="stroke-width: 1; stroke-dasharray: 1, 0;"/></marker><marker id="my-svg_flowchart-v2-pointStart" class="marker flowchart-v2" viewBox="0 0 10 10" refX="4.5" refY="5" markerUnits="userSpaceOnUse" markerWidth="8" markerHeight="8" orient="auto"><path d="M 0 5 L 10 10 L 10 0 z" class="arrowMarkerPath" style="stroke-width: 1; stroke-dasharray: 1, 0;"/></marker><marker id="my-svg_flowchart-v2-pointEnd-margin" class="marker flowchart-v2" viewBox="0 0 11.5 14" refX="11.5" refY="7" markerUnits="userSpaceOnUse" markerWidth="10.5" markerHeight="14" orient="auto"><path d="M 0 0 L 11.5 7 L 0 14 z" class="arrowMarkerPath" style="stroke-width: 0; stroke-dasharray: 1, 0;"/></marker><marker id="my-svg_flowchart-v2-pointStart-margin" class="marker flowchart-v2" viewBox="0 0 11.5 14" refX="1" refY="7" markerUnits="userSpaceOnUse" markerWidth="11.5" markerHeight="14" orient="auto"><polygon points="0,7 11.5,14 11.5,0" class="arrowMarkerPath" style="stroke-width: 0; stroke-dasharray: 1, 0;"/></marker><marker id="my-svg_flowchart-v2-circleEnd" class="marker flowchart-v2" viewBox="0 0 10 10" refX="11" refY="5" markerUnits="userSpaceOnUse" markerWidth="11" markerHeight="11" orient="auto"><circle cx="5" cy="5" r="5" class="arrowMarkerPath" style="stroke-width: 1; stroke-dasharray: 1, 0;"/></marker><marker id="my-svg_flowchart-v2-circleStart" class="marker flowchart-v2" viewBox="0 0 10 10" refX="-1" refY="5" markerUnits="userSpaceOnUse" markerWidth="11" markerHeight="11" orient="auto"><circle cx="5" cy="5" r="5" class="arrowMarkerPath" style="stroke-width: 1; stroke-dasharray: 1, 0;"/></marker><marker id="my-svg_flowchart-v2-circleEnd-margin" class="marker flowchart-v2" viewBox="0 0 10 10" refY="5" refX="12.25" markerUnits="userSpaceOnUse" markerWidth="14" markerHeight="14" orient="auto"><circle cx="5" cy="5" r="5" class="arrowMarkerPath" style="stroke-width: 0; stroke-dasharray: 1, 0;"/></marker><marker id="my-svg_flowchart-v2-circleStart-margin" class="marker flowchart-v2" viewBox="0 0 10 10" refX="-2" refY="5" markerUnits="userSpaceOnUse" markerWidth="14" markerHeight="14" orient="auto"><circle cx="5" cy="5" r="5" class="arrowMarkerPath" style="stroke-width: 0; stroke-dasharray: 1, 0;"/></marker><marker id="my-svg_flowchart-v2-crossEnd" class="marker cross flowchart-v2" viewBox="0 0 11 11" refX="12" refY="5.2" markerUnits="userSpaceOnUse" markerWidth="11" markerHeight="11" orient="auto"><path d="M 1,1 l 9,9 M 10,1 l -9,9" class="arrowMarkerPath" style="stroke-width: 2; stroke-dasharray: 1, 0;"/></marker><marker id="my-svg_flowchart-v2-crossStart" class="marker cross flowchart-v2" viewBox="0 0 11 11" refX="-1" refY="5.2" markerUnits="userSpaceOnUse" markerWidth="11" markerHeight="11" orient="auto"><path d="M 1,1 l 9,9 M 10,1 l -9,9" class="arrowMarkerPath" style="stroke-width: 2; stroke-dasharray: 1, 0;"/></marker><marker id="my-svg_flowchart-v2-crossEnd-margin" class="marker cross flowchart-v2" viewBox="0 0 15 15" refX="17.7" refY="7.5" markerUnits="userSpaceOnUse" markerWidth="12" markerHeight="12" orient="auto"><path d="M 1,1 L 14,14 M 1,14 L 14,1" class="arrowMarkerPath" style="stroke-width: 2.5;"/></marker><marker id="my-svg_flowchart-v2-crossStart-margin" class="marker cross flowchart-v2" viewBox="0 0 15 15" refX="-3.5" refY="7.5" markerUnits="userSpaceOnUse" markerWidth="12" markerHeight="12" orient="auto"><path d="M 1,1 L 14,14 M 1,14 L 14,1" class="arrowMarkerPath" style="stroke-width: 2.5; stroke-dasharray: 1, 0;"/></marker><g class="root"><g class="clusters"/><g class="edgePaths"><path d="M564.5,47.5L564.417,51.583C564.333,55.667,564.167,63.833,564.083,71.417C564,79,564,86,564,89.5L564,93" id="my-svg-L_START_INSTALL_0" class="edge-thickness-normal edge-pattern-solid edge-thickness-normal edge-pattern-solid flowchart-link" style=";" data-edge="true" data-et="edge" data-id="L_START_INSTALL_0" data-points="W3sieCI6NTY0LjUsInkiOjQ3LjV9LHsieCI6NTY0LCJ5Ijo3Mn0seyJ4Ijo1NjQsInkiOjk3fV0=" data-look="classic" marker-end="url(#my-svg_flowchart-v2-pointEnd)"/><path d="M564,175L564,179.167C564,183.333,564,191.667,564,199.333C564,207,564,214,564,217.5L564,221" id="my-svg-L_INSTALL_CONFIG_0" class="edge-thickness-normal edge-pattern-solid edge-thickness-normal edge-pattern-solid flowchart-link" style=";" data-edge="true" data-et="edge" data-id="L_INSTALL_CONFIG_0" data-points="W3sieCI6NTY0LCJ5IjoxNzV9LHsieCI6NTY0LCJ5IjoyMDB9LHsieCI6NTY0LCJ5IjoyMjV9XQ==" data-look="classic" marker-end="url(#my-svg_flowchart-v2-pointEnd)"/><path d="M564,303L564,307.167C564,311.333,564,319.667,564,327.333C564,335,564,342,564,345.5L564,349" id="my-svg-L_CONFIG_ROLE_0" class="edge-thickness-normal edge-pattern-solid edge-thickness-normal edge-pattern-solid flowchart-link" style=";" data-edge="true" data-et="edge" data-id="L_CONFIG_ROLE_0" data-points="W3sieCI6NTY0LCJ5IjozMDN9LHsieCI6NTY0LCJ5IjozMjh9LHsieCI6NTY0LCJ5IjozNTN9XQ==" data-look="classic" marker-end="url(#my-svg_flowchart-v2-pointEnd)"/><path d="M517.518,433.518L479.515,447.432C441.512,461.345,365.506,489.173,327.503,508.586C289.5,528,289.5,539,289.5,544.5L289.5,550" id="my-svg-L_ROLE_ROOT_0" class="edge-thickness-normal edge-pattern-solid edge-thickness-normal edge-pattern-solid flowchart-link" style=";" data-edge="true" data-et="edge" data-id="L_ROLE_ROOT_0" data-points="W3sieCI6NTE3LjUxOCwieSI6NDMzLjUxOH0seyJ4IjoyODkuNSwieSI6NTE3fSx7IngiOjI4OS41LCJ5Ijo1NTR9XQ==" data-look="classic" marker-end="url(#my-svg_flowchart-v2-pointEnd)"/><path d="M562.159,478.159L561.966,484.633C561.773,491.106,561.386,504.053,561.193,516.027C561,528,561,539,561,544.5L561,550" id="my-svg-L_ROLE_ACCT_0" class="edge-thickness-normal edge-pattern-solid edge-thickness-normal edge-pattern-solid flowchart-link" style=";" data-edge="true" data-et="edge" data-id="L_ROLE_ACCT_0" data-points="W3sieCI6NTYyLjE1OTQyMDI4OTg1NTEsInkiOjQ3OC4xNTk0MjAyODk4NTUwNn0seyJ4Ijo1NjEsInkiOjUxN30seyJ4Ijo1NjEsInkiOjU1NH1d" data-look="classic" marker-end="url(#my-svg_flowchart-v2-pointEnd)"/><path d="M610.205,433.795L647.254,447.662C684.304,461.53,758.402,489.265,795.451,508.632C832.5,528,832.5,539,832.5,544.5L832.5,550" id="my-svg-L_ROLE_USER_0" class="edge-thickness-normal edge-pattern-solid edge-thickness-normal edge-pattern-solid flowchart-link" style=";" data-edge="true" data-et="edge" data-id="L_ROLE_USER_0" data-points="W3sieCI6NjEwLjIwNTI4NDU1Mjg0NTYsInkiOjQzMy43OTQ3MTU0NDcxNTQ1fSx7IngiOjgzMi41LCJ5Ijo1MTd9LHsieCI6ODMyLjUsInkiOjU1NH1d" data-look="classic" marker-end="url(#my-svg_flowchart-v2-pointEnd)"/><path d="M289.5,608L289.5,612.167C289.5,616.333,289.5,624.667,324.795,642.591C360.091,660.516,430.681,688.032,465.977,701.79L501.272,715.549" id="my-svg-L_ROOT_SURFACE_0" class="edge-thickness-normal edge-pattern-solid edge-thickness-normal edge-pattern-solid flowchart-link" style=";" data-edge="true" data-et="edge" data-id="L_ROOT_SURFACE_0" data-points="W3sieCI6Mjg5LjUsInkiOjYwOH0seyJ4IjoyODkuNSwieSI6NjMzfSx7IngiOjUwNC45OTg2ODkzODQwMTA1LCJ5Ijo3MTcuMDAxMzEwNjE1OTg5NX1d" data-look="classic" marker-end="url(#my-svg_flowchart-v2-pointEnd)"/><path d="M561,608L561,612.167C561,616.333,561,624.667,561.109,632.706C561.217,640.746,561.434,648.492,561.543,652.365L561.652,656.238" id="my-svg-L_ACCT_SURFACE_0" class="edge-thickness-normal edge-pattern-solid edge-thickness-normal edge-pattern-solid flowchart-link" style=";" data-edge="true" data-et="edge" data-id="L_ACCT_SURFACE_0" data-points="W3sieCI6NTYxLCJ5Ijo2MDh9LHsieCI6NTYxLCJ5Ijo2MzN9LHsieCI6NTYxLjc2MzYzNjM2MzYzNjQsInkiOjY2MC4yMzYzNjM2MzYzNjM2fV0=" data-look="classic" marker-end="url(#my-svg_flowchart-v2-pointEnd)"/><path d="M832.5,608L832.5,612.167C832.5,616.333,832.5,624.667,798.142,642.526C763.783,660.384,695.066,687.769,660.708,701.461L626.35,715.153" id="my-svg-L_USER_SURFACE_0" class="edge-thickness-normal edge-pattern-solid edge-thickness-normal edge-pattern-solid flowchart-link" style=";" data-edge="true" data-et="edge" data-id="L_USER_SURFACE_0" data-points="W3sieCI6ODMyLjUsInkiOjYwOH0seyJ4Ijo4MzIuNSwieSI6NjMzfSx7IngiOjYyMi42MzM4MjE1NzEyMzg0LCJ5Ijo3MTYuNjMzODIxNTcxMjM4NH1d" data-look="classic" marker-end="url(#my-svg_flowchart-v2-pointEnd)"/><path d="M499.059,757.059L434.383,774.05C369.706,791.04,240.353,825.02,175.677,847.51C111,870,111,881,111,886.5L111,892" id="my-svg-L_SURFACE_WEB_0" class="edge-thickness-normal edge-pattern-solid edge-thickness-normal edge-pattern-solid flowchart-link" style=";" data-edge="true" data-et="edge" data-id="L_SURFACE_WEB_0" data-points="W3sieCI6NDk5LjA1OTQ0MDU1OTQ0MDUzLCJ5Ijo3NTcuMDU5NDQwNTU5NDQwNX0seyJ4IjoxMTEsInkiOjg1OX0seyJ4IjoxMTEsInkiOjg5Nn1d" data-look="classic" marker-end="url(#my-svg_flowchart-v2-pointEnd)"/><path d="M511.392,769.392L484.66,784.326C457.928,799.261,404.464,829.131,377.732,849.565C351,870,351,881,351,886.5L351,892" id="my-svg-L_SURFACE_CLI_0" class="edge-thickness-normal edge-pattern-solid edge-thickness-normal edge-pattern-solid flowchart-link" style=";" data-edge="true" data-et="edge" data-id="L_SURFACE_CLI_0" data-points="W3sieCI6NTExLjM5MTU2NjI2NTA2MDI1LCJ5Ijo3NjkuMzkxNTY2MjY1MDYwMn0seyJ4IjozNTEsInkiOjg1OX0seyJ4IjozNTEsInkiOjg5Nn1d" data-look="classic" marker-end="url(#my-svg_flowchart-v2-pointEnd)"/><path d="M564,822L564,828.167C564,834.333,564,846.667,564,858.333C564,870,564,881,564,886.5L564,892" id="my-svg-L_SURFACE_TUI_0" class="edge-thickness-normal edge-pattern-solid edge-thickness-normal edge-pattern-solid flowchart-link" style=";" data-edge="true" data-et="edge" data-id="L_SURFACE_TUI_0" data-points="W3sieCI6NTY0LCJ5Ijo4MjJ9LHsieCI6NTY0LCJ5Ijo4NTl9LHsieCI6NTY0LCJ5Ijo4OTZ9XQ==" data-look="classic" marker-end="url(#my-svg_flowchart-v2-pointEnd)"/><path d="M616.828,769.172L643.94,784.143C671.052,799.115,725.276,829.057,752.388,849.529C779.5,870,779.5,881,779.5,886.5L779.5,892" id="my-svg-L_SURFACE_MOB_0" class="edge-thickness-normal edge-pattern-solid edge-thickness-normal edge-pattern-solid flowchart-link" style=";" data-edge="true" data-et="edge" data-id="L_SURFACE_MOB_0" data-points="W3sieCI6NjE2LjgyODEwMTY0NDI0NTIsInkiOjc2OS4xNzE4OTgzNTU3NTQ4fSx7IngiOjc3OS41LCJ5Ijo4NTl9LHsieCI6Nzc5LjUsInkiOjg5Nn1d" data-look="classic" marker-end="url(#my-svg_flowchart-v2-pointEnd)"/><path d="M628.76,757.24L692.466,774.2C756.173,791.16,883.587,825.08,947.293,847.54C1011,870,1011,881,1011,886.5L1011,892" id="my-svg-L_SURFACE_SDK_0" class="edge-thickness-normal edge-pattern-solid edge-thickness-normal edge-pattern-solid flowchart-link" style=";" data-edge="true" data-et="edge" data-id="L_SURFACE_SDK_0" data-points="W3sieCI6NjI4Ljc1OTcxNzMxNDQ4NzYsInkiOjc1Ny4yNDAyODI2ODU1MTI0fSx7IngiOjEwMTEsInkiOjg1OX0seyJ4IjoxMDExLCJ5Ijo4OTZ9XQ==" data-look="classic" marker-end="url(#my-svg_flowchart-v2-pointEnd)"/><path d="M111,950L111,954.167C111,958.333,111,966.667,178.499,982.232C245.999,997.798,380.998,1020.596,448.497,1031.995L515.996,1043.393" id="my-svg-L_WEB_HELP_0" class="edge-thickness-normal edge-pattern-solid edge-thickness-normal edge-pattern-solid flowchart-link" style=";" data-edge="true" data-et="edge" data-id="L_WEB_HELP_0" data-points="W3sieCI6MTExLCJ5Ijo5NTB9LHsieCI6MTExLCJ5Ijo5NzV9LHsieCI6NTE5Ljk0MDUwOTkxNTAxNDIsInkiOjEwNDQuMDU5NDkwMDg0OTg1OH1d" data-look="classic" marker-end="url(#my-svg_flowchart-v2-pointEnd)"/><path d="M351,950L351,954.167C351,958.333,351,966.667,379.557,981.09C408.115,995.513,465.229,1016.026,493.787,1026.283L522.344,1036.539" id="my-svg-L_CLI_HELP_0" class="edge-thickness-normal edge-pattern-solid edge-thickness-normal edge-pattern-solid flowchart-link" style=";" data-edge="true" data-et="edge" data-id="L_CLI_HELP_0" data-points="W3sieCI6MzUxLCJ5Ijo5NTB9LHsieCI6MzUxLCJ5Ijo5NzV9LHsieCI6NTI2LjEwODgwODI5MDE1NTUsInkiOjEwMzcuODkxMTkxNzA5ODQ0Nn1d" data-look="classic" marker-end="url(#my-svg_flowchart-v2-pointEnd)"/><path d="M564,950L564,954.167C564,958.333,564,966.667,564,974.333C564,982,564,989,564,992.5L564,996" id="my-svg-L_TUI_HELP_0" class="edge-thickness-normal edge-pattern-solid edge-thickness-normal edge-pattern-solid flowchart-link" style=";" data-edge="true" data-et="edge" data-id="L_TUI_HELP_0" data-points="W3sieCI6NTY0LCJ5Ijo5NTB9LHsieCI6NTY0LCJ5Ijo5NzV9LHsieCI6NTY0LCJ5IjoxMDAwfV0=" data-look="classic" marker-end="url(#my-svg_flowchart-v2-pointEnd)"/><path d="M779.5,950L779.5,954.167C779.5,958.333,779.5,966.667,750.546,981.112C721.592,995.557,663.685,1016.113,634.731,1026.391L605.777,1036.67" id="my-svg-L_MOB_HELP_0" class="edge-thickness-normal edge-pattern-solid edge-thickness-normal edge-pattern-solid flowchart-link" style=";" data-edge="true" data-et="edge" data-id="L_MOB_HELP_0" data-points="W3sieCI6Nzc5LjUsInkiOjk1MH0seyJ4Ijo3NzkuNSwieSI6OTc1fSx7IngiOjYwMi4wMDc3MDU0Nzk0NTIsInkiOjEwMzguMDA3NzA1NDc5NDUyfV0=" data-look="classic" marker-end="url(#my-svg_flowchart-v2-pointEnd)"/><path d="M1011,950L1011,954.167C1011,958.333,1011,966.667,944.486,982.217C877.972,997.766,744.945,1020.533,678.431,1031.916L611.917,1043.299" id="my-svg-L_SDK_HELP_0" class="edge-thickness-normal edge-pattern-solid edge-thickness-normal edge-pattern-solid flowchart-link" style=";" data-edge="true" data-et="edge" data-id="L_SDK_HELP_0" data-points="W3sieCI6MTAxMSwieSI6OTUwfSx7IngiOjEwMTEsInkiOjk3NX0seyJ4Ijo2MDcuOTc0MjEyMDM0Mzg0LCJ5IjoxMDQzLjk3NDIxMjAzNDM4NH1d" data-look="classic" marker-end="url(#my-svg_flowchart-v2-pointEnd)"/><path d="M534.696,1073.696L522.746,1082.746C510.797,1091.797,486.899,1109.899,474.949,1122.449C463,1135,463,1142,463,1145.5L463,1149" id="my-svg-L_HELP_FAQ_0" class="edge-thickness-normal edge-pattern-solid edge-thickness-normal edge-pattern-solid flowchart-link" style=";" data-edge="true" data-et="edge" data-id="L_HELP_FAQ_0" data-points="W3sieCI6NTM0LjY5NTc3NDY0Nzg4NzMsInkiOjEwNzMuNjk1Nzc0NjQ3ODg3Mn0seyJ4Ijo0NjMsInkiOjExMjh9LHsieCI6NDYzLCJ5IjoxMTUzfV0=" data-look="classic" marker-end="url(#my-svg_flowchart-v2-pointEnd)"/><path d="M593.304,1073.696L605.254,1082.746C617.203,1091.797,641.101,1109.899,653.051,1122.449C665,1135,665,1142,665,1145.5L665,1149" id="my-svg-L_HELP_TRB_0" class="edge-thickness-normal edge-pattern-solid edge-thickness-normal edge-pattern-solid flowchart-link" style=";" data-edge="true" data-et="edge" data-id="L_HELP_TRB_0" data-points="W3sieCI6NTkzLjMwNDIyNTM1MjExMjcsInkiOjEwNzMuNjk1Nzc0NjQ3ODg3Mn0seyJ4Ijo2NjUsInkiOjExMjh9LHsieCI6NjY1LCJ5IjoxMTUzfV0=" data-look="classic" marker-end="url(#my-svg_flowchart-v2-pointEnd)"/></g><g class="edgeLabels"><g class="edgeLabel"><g class="label" data-id="L_START_INSTALL_0" transform="translate(0, 0)"><foreignObject width="0" height="0"><div xmlns="http://www.w3.org/1999/xhtml" class="labelBkg" style="display: table-cell; white-space: nowrap; line-height: 1.5; max-width: 200px; text-align: center;"><span class="edgeLabel"></span></div></foreignObject></g></g><g class="edgeLabel"><g class="label" data-id="L_INSTALL_CONFIG_0" transform="translate(0, 0)"><foreignObject width="0" height="0"><div xmlns="http://www.w3.org/1999/xhtml" class="labelBkg" style="display: table-cell; white-space: nowrap; line-height: 1.5; max-width: 200px; text-align: center;"><span class="edgeLabel"></span></div></foreignObject></g></g><g class="edgeLabel"><g class="label" data-id="L_CONFIG_ROLE_0" transform="translate(0, 0)"><foreignObject width="0" height="0"><div xmlns="http://www.w3.org/1999/xhtml" class="labelBkg" style="display: table-cell; white-space: nowrap; line-height: 1.5; max-width: 200px; text-align: center;"><span class="edgeLabel"></span></div></foreignObject></g></g><g class="edgeLabel" transform="translate(289.5, 517)"><g class="label" data-id="L_ROLE_ROOT_0" transform="translate(-72, -12)"><foreignObject width="144" height="24"><div xmlns="http://www.w3.org/1999/xhtml" class="labelBkg" style="display: table-cell; white-space: nowrap; line-height: 1.5; max-width: 200px; text-align: center;"><span class="edgeLabel"><p>Owner of the system</p></span></div></foreignObject></g></g><g class="edgeLabel" transform="translate(561, 517)"><g class="label" data-id="L_ROLE_ACCT_0" transform="translate(-64.5, -12)"><foreignObject width="129" height="24"><div xmlns="http://www.w3.org/1999/xhtml" class="labelBkg" style="display: table-cell; white-space: nowrap; line-height: 1.5; max-width: 200px; text-align: center;"><span class="edgeLabel"><p>Runs one account</p></span></div></foreignObject></g></g><g class="edgeLabel" transform="translate(832.5, 517)"><g class="label" data-id="L_ROLE_USER_0" transform="translate(-66.5, -12)"><foreignObject width="133" height="24"><div xmlns="http://www.w3.org/1999/xhtml" class="labelBkg" style="display: table-cell; white-space: nowrap; line-height: 1.5; max-width: 200px; text-align: center;"><span class="edgeLabel"><p>Consumes content</p></span></div></foreignObject></g></g><g class="edgeLabel"><g class="label" data-id="L_ROOT_SURFACE_0" transform="translate(0, 0)"><foreignObject width="0" height="0"><div xmlns="http://www.w3.org/1999/xhtml" class="labelBkg" style="display: table-cell; white-space: nowrap; line-height: 1.5; max-width: 200px; text-align: center;"><span class="edgeLabel"></span></div></foreignObject></g></g><g class="edgeLabel"><g class="label" data-id="L_ACCT_SURFACE_0" transform="translate(0, 0)"><foreignObject width="0" height="0"><div xmlns="http://www.w3.org/1999/xhtml" class="labelBkg" style="display: table-cell; white-space: nowrap; line-height: 1.5; max-width: 200px; text-align: center;"><span class="edgeLabel"></span></div></foreignObject></g></g><g class="edgeLabel"><g class="label" data-id="L_USER_SURFACE_0" transform="translate(0, 0)"><foreignObject width="0" height="0"><div xmlns="http://www.w3.org/1999/xhtml" class="labelBkg" style="display: table-cell; white-space: nowrap; line-height: 1.5; max-width: 200px; text-align: center;"><span class="edgeLabel"></span></div></foreignObject></g></g><g class="edgeLabel" transform="translate(111, 859)"><g class="label" data-id="L_SURFACE_WEB_0" transform="translate(-29.5, -12)"><foreignObject width="59" height="24"><div xmlns="http://www.w3.org/1999/xhtml" class="labelBkg" style="display: table-cell; white-space: nowrap; line-height: 1.5; max-width: 200px; text-align: center;"><span class="edgeLabel"><p>Browser</p></span></div></foreignObject></g></g><g class="edgeLabel" transform="translate(351, 859)"><g class="label" data-id="L_SURFACE_CLI_0" transform="translate(-63, -12)"><foreignObject width="126" height="24"><div xmlns="http://www.w3.org/1999/xhtml" class="labelBkg" style="display: table-cell; white-space: nowrap; line-height: 1.5; max-width: 200px; text-align: center;"><span class="edgeLabel"><p>Scripts / pipelines</p></span></div></foreignObject></g></g><g class="edgeLabel" transform="translate(564, 859)"><g class="label" data-id="L_SURFACE_TUI_0" transform="translate(-40.5, -12)"><foreignObject width="81" height="24"><div xmlns="http://www.w3.org/1999/xhtml" class="labelBkg" style="display: table-cell; white-space: nowrap; line-height: 1.5; max-width: 200px; text-align: center;"><span class="edgeLabel"><p>Terminal UI</p></span></div></foreignObject></g></g><g class="edgeLabel" transform="translate(779.5, 859)"><g class="label" data-id="L_SURFACE_MOB_0" transform="translate(-49, -12)"><foreignObject width="98" height="24"><div xmlns="http://www.w3.org/1999/xhtml" class="labelBkg" style="display: table-cell; white-space: nowrap; line-height: 1.5; max-width: 200px; text-align: center;"><span class="edgeLabel"><p>Phone / tablet</p></span></div></foreignObject></g></g><g class="edgeLabel" transform="translate(1011, 859)"><g class="label" data-id="L_SURFACE_SDK_0" transform="translate(-69, -12)"><foreignObject width="138" height="24"><div xmlns="http://www.w3.org/1999/xhtml" class="labelBkg" style="display: table-cell; white-space: nowrap; line-height: 1.5; max-width: 200px; text-align: center;"><span class="edgeLabel"><p>Build an integration</p></span></div></foreignObject></g></g><g class="edgeLabel"><g class="label" data-id="L_WEB_HELP_0" transform="translate(0, 0)"><foreignObject width="0" height="0"><div xmlns="http://www.w3.org/1999/xhtml" class="labelBkg" style="display: table-cell; white-space: nowrap; line-height: 1.5; max-width: 200px; text-align: center;"><span class="edgeLabel"></span></div></foreignObject></g></g><g class="edgeLabel"><g class="label" data-id="L_CLI_HELP_0" transform="translate(0, 0)"><foreignObject width="0" height="0"><div xmlns="http://www.w3.org/1999/xhtml" class="labelBkg" style="display: table-cell; white-space: nowrap; line-height: 1.5; max-width: 200px; text-align: center;"><span class="edgeLabel"></span></div></foreignObject></g></g><g class="edgeLabel"><g class="label" data-id="L_TUI_HELP_0" transform="translate(0, 0)"><foreignObject width="0" height="0"><div xmlns="http://www.w3.org/1999/xhtml" class="labelBkg" style="display: table-cell; white-space: nowrap; line-height: 1.5; max-width: 200px; text-align: center;"><span class="edgeLabel"></span></div></foreignObject></g></g><g class="edgeLabel"><g class="label" data-id="L_MOB_HELP_0" transform="translate(0, 0)"><foreignObject width="0" height="0"><div xmlns="http://www.w3.org/1999/xhtml" class="labelBkg" style="display: table-cell; white-space: nowrap; line-height: 1.5; max-width: 200px; text-align: center;"><span class="edgeLabel"></span></div></foreignObject></g></g><g class="edgeLabel"><g class="label" data-id="L_SDK_HELP_0" transform="translate(0, 0)"><foreignObject width="0" height="0"><div xmlns="http://www.w3.org/1999/xhtml" class="labelBkg" style="display: table-cell; white-space: nowrap; line-height: 1.5; max-width: 200px; text-align: center;"><span class="edgeLabel"></span></div></foreignObject></g></g><g class="edgeLabel"><g class="label" data-id="L_HELP_FAQ_0" transform="translate(0, 0)"><foreignObject width="0" height="0"><div xmlns="http://www.w3.org/1999/xhtml" class="labelBkg" style="display: table-cell; white-space: nowrap; line-height: 1.5; max-width: 200px; text-align: center;"><span class="edgeLabel"></span></div></foreignObject></g></g><g class="edgeLabel"><g class="label" data-id="L_HELP_TRB_0" transform="translate(0, 0)"><foreignObject width="0" height="0"><div xmlns="http://www.w3.org/1999/xhtml" class="labelBkg" style="display: table-cell; white-space: nowrap; line-height: 1.5; max-width: 200px; text-align: center;"><span class="edgeLabel"></span></div></foreignObject></g></g></g><g class="nodes"><g class="node default" id="my-svg-flowchart-START-0" data-look="classic" transform="translate(564, 27.5)"><g class="basic label-container outer-path"><path d="M-69.875 -19.5 C-25.276828996572917 -19.5, 19.321342006854167 -19.5, 69.875 -19.5 C69.875 -19.5, 69.875 -19.5, 69.875 -19.5 C70.27651515723208 -19.48712419040941, 70.67803031446417 -19.47424838081882, 71.1243692896239 -19.45993515863156 C71.48052197066976 -19.42557753782733, 71.83667465171563 -19.391219917023104, 72.36860465284786 -19.3399052695533 C72.63361228083667 -19.297060891424916, 72.8986199088255 -19.254216513296534, 73.60259325967675 -19.140403561325776 C74.01695631887826 -19.045827897034695, 74.43131937807975 -18.951252232743613, 74.82126438623538 -18.862249829261074 C75.18251490529381 -18.755032571447202, 75.54376542435226 -18.647815313633327, 76.0196102514606 -18.50658706670804 C76.37591344639216 -18.3754641973426, 76.73221664132372 -18.244341327977157, 77.1927065951478 -18.074876768247425 C77.53595414913649 -17.922931258173552, 77.87920170312518 -17.77098574809968, 78.33573291279238 -17.568892924097174 C78.70087031670668 -17.37840097435675, 79.06600772062099 -17.18790902461633, 79.44399226407678 -16.990714730406097 C79.70241395951163 -16.834057979979047, 79.96083565494646 -16.677401229551993, 80.5129305736057 -16.342718045390892 C80.80391720422855 -16.139738368476614, 81.0949038348514 -15.936758691562332, 81.53815534457871 -15.627565626425154 C81.8353365212384 -15.39057154636229, 82.1325176978981 -15.153577466299428, 82.51545370850187 -14.848196188198123 C82.79955473672754 -14.590183151264853, 83.08365576495324 -14.332170114331582, 83.44080973676799 -14.007812326905688 C83.63154325801862 -13.810864306701083, 83.82227677926926 -13.613916286496478, 84.31042094296865 -13.10986736009568 C84.52956948418036 -12.85244301368316, 84.74871802539205 -12.595018667270638, 85.12071390812658 -12.158051136245305 C85.35181444424487 -11.848397471538762, 85.58291498036314 -11.538743806832217, 85.86835896464063 -11.156274872382312 C86.12022557775823 -10.769340118978173, 86.37209219087583 -10.382405365574032, 86.55028387860425 -10.108655082055241 C86.7346971007778 -9.781210732222446, 86.91911032295134 -9.45376638238965, 87.1636864742735 -9.019496659696287 C87.35917877179644 -8.613552721024833, 87.55467106931937 -8.207608782353377, 87.70604614880834 -7.893275190886684 C87.81778810935036 -7.61727038796405, 87.9295300698924 -7.341265585041415, 88.17513422997033 -6.734618561215508 C88.26633449217486 -6.459937902243919, 88.35753475437939 -6.185257243272329, 88.56902313421489 -5.548287939305138 C88.64398064109642 -5.2624424787768875, 88.71893814797794 -4.976597018248637, 88.88609428754556 -4.339158212148133 C88.97449894690091 -3.8852189706898086, 89.06290360625624 -3.431279729231484, 89.12504477658177 -3.1121979531509023 C89.1607022373453 -2.8356457288310075, 89.19635969810884 -2.5590935045111127, 89.28489270250937 -1.872449005199798 C89.31071091519253 -1.470309502573303, 89.3365291278757 -1.0681699999468082, 89.36498121591342 -0.6250057626472757 C89.36498121591342 -0.27502968918160503, 89.36498121591342 0.07494638428406564, 89.36498121591342 0.625005762647271 C89.34213645619226 0.9808313352623805, 89.31929169647111 1.3366569078774901, 89.28489270250937 1.8724490051997846 C89.22159511463207 2.363372597253554, 89.15829752675478 2.854296189307324, 89.12504477658177 3.1121979531508885 C89.07088793553721 3.390281885862295, 89.01673109449266 3.6683658185737014, 88.88609428754556 4.339158212148129 C88.7945883943833 4.688109841680806, 88.70308250122103 5.037061471213482, 88.56902313421489 5.548287939305125 C88.42582423348236 5.979580212665077, 88.28262533274984 6.410872486025028, 88.17513422997033 6.734618561215495 C88.03247704646587 7.08698456256051, 87.88981986296142 7.439350563905525, 87.70604614880834 7.893275190886679 C87.5549850498667 8.206956795028713, 87.40392395092508 8.520638399170746, 87.1636864742735 9.019496659696284 C86.94406969042484 9.409448498030413, 86.72445290657619 9.799400336364542, 86.55028387860425 10.108655082055236 C86.40440447522458 10.332765019751097, 86.25852507184493 10.556874957446958, 85.86835896464065 11.156274872382301 C85.62212860337509 11.486201124430766, 85.37589824210954 11.81612737647923, 85.12071390812659 12.158051136245302 C84.9586521638832 12.348418082608063, 84.79659041963981 12.538785028970826, 84.31042094296866 13.10986736009567 C84.1338502624065 13.292191084498581, 83.95727958184433 13.474514808901494, 83.44080973676799 14.007812326905684 C83.21009586167435 14.2173405639111, 82.97938198658072 14.426868800916514, 82.5154537085019 14.848196188198111 C82.19532260905854 15.10349222095785, 81.87519150961519 15.358788253717588, 81.53815534457871 15.627565626425152 C81.32137397792346 15.778782923489747, 81.10459261126819 15.93000022055434, 80.5129305736057 16.34271804539089 C80.17920178827525 16.545026396266238, 79.84547300294481 16.74733474714159, 79.44399226407678 16.990714730406093 C79.21947598320214 17.107844730328853, 78.99495970232749 17.224974730251613, 78.33573291279238 17.56889292409717 C77.90918299412303 17.757713919938325, 77.48263307545366 17.94653491577948, 77.1927065951478 18.07487676824742 C76.8024306143667 18.218501936846483, 76.4121546335856 18.362127105445545, 76.01961025146062 18.506587066708033 C75.58075755641602 18.63683624301247, 75.1419048613714 18.767085419316906, 74.82126438623541 18.86224982926107 C74.44346272587141 18.948480592852917, 74.06566106550741 19.034711356444763, 73.60259325967677 19.140403561325773 C73.19042437965554 19.2070398294302, 72.77825549963431 19.273676097534633, 72.36860465284788 19.3399052695533 C72.11860531981237 19.364022404543046, 71.86860598677687 19.388139539532794, 71.1243692896239 19.45993515863156 C70.687047578819 19.473959214702, 70.2497258680141 19.487983270772443, 69.875 19.5 C69.875 19.5, 69.875 19.5, 69.875 19.5 C20.14067849091127 19.5, -29.59364301817746 19.5, -69.875 19.5 C-70.22696023408253 19.48871332034201, -70.57892046816504 19.47742664068402, -71.1243692896239 19.45993515863156 C-71.47992681513409 19.425634951766078, -71.8354843406443 19.391334744900597, -72.36860465284786 19.3399052695533 C-72.85894882617463 19.260630226285684, -73.3492929995014 19.18135518301807, -73.60259325967675 19.140403561325773 C-74.03230884007006 19.042323784257228, -74.46202442046335 18.94424400718868, -74.82126438623538 18.862249829261074 C-75.16860371944229 18.759161338386633, -75.51594305264918 18.656072847512192, -76.01961025146059 18.506587066708043 C-76.47851527267066 18.337705776831225, -76.93742029388072 18.16882448695441, -77.1927065951478 18.074876768247425 C-77.62947363614836 17.88153295543041, -78.06624067714894 17.688189142613393, -78.33573291279238 17.568892924097174 C-78.62423998313164 17.41837897029878, -78.91274705347091 17.267865016500384, -79.44399226407678 16.990714730406097 C-79.80358673019421 16.772726451834068, -80.16318119631164 16.554738173262038, -80.51293057360569 16.3427180453909 C-80.76590248979832 16.166255787632675, -81.01887440599094 15.989793529874449, -81.53815534457871 15.627565626425156 C-81.80897996815213 15.411590196071261, -82.07980459172555 15.195614765717364, -82.51545370850187 14.848196188198125 C-82.78762525136099 14.60101719423788, -83.0597967942201 14.353838200277634, -83.44080973676797 14.007812326905697 C-83.74641876154845 13.692245917852281, -84.05202778632895 13.376679508798867, -84.31042094296865 13.109867360095677 C-84.52166240113155 12.861731123358055, -84.73290385929445 12.613594886620435, -85.12071390812658 12.158051136245307 C-85.2775466826937 11.947909506085061, -85.4343794572608 11.737767875924817, -85.86835896464063 11.156274872382316 C-86.0878789539018 10.819033219506373, -86.30739894316295 10.48179156663043, -86.55028387860425 10.108655082055249 C-86.72878325828997 9.791711358401077, -86.90728263797568 9.474767634746907, -87.1636864742735 9.019496659696289 C-87.33055241697448 8.672995959318484, -87.49741835967546 8.32649525894068, -87.70604614880834 7.893275190886686 C-87.88204531918934 7.4585538373331195, -88.05804448957036 7.023832483779553, -88.17513422997033 6.73461856121551 C-88.26242987635514 6.471697982976862, -88.34972552273996 6.208777404738216, -88.56902313421489 5.5482879393051325 C-88.6871327482182 5.0978847920799595, -88.80524236222152 4.647481644854786, -88.88609428754556 4.339158212148136 C-88.95302678166715 3.995474001021429, -89.01995927578874 3.651789789894722, -89.12504477658177 3.112197953150904 C-89.18084131938662 2.67945098543017, -89.23663786219146 2.246704017709436, -89.28489270250937 1.872449005199809 C-89.30805578616813 1.5116652803101018, -89.33121886982687 1.1508815554203946, -89.36498121591342 0.6250057626472781 C-89.36498121591342 0.23139636604151936, -89.36498121591342 -0.1622130305642394, -89.36498121591342 -0.6250057626472687 C-89.33438777588199 -1.1015232857170272, -89.30379433585057 -1.5780408087867859, -89.28489270250937 -1.8724490051997822 C-89.23743878578982 -2.240492212440774, -89.18998486907029 -2.6085354196817656, -89.12504477658177 -3.112197953150895 C-89.0614850743909 -3.4385635905532097, -88.99792537220003 -3.764929227955524, -88.88609428754556 -4.339158212148126 C-88.81165345791982 -4.6230333583707575, -88.73721262829406 -4.906908504593388, -88.56902313421489 -5.548287939305123 C-88.41814659895984 -6.002704024581964, -88.2672700637048 -6.457120109858805, -88.17513422997033 -6.734618561215485 C-88.02793976254095 -7.098191741577471, -87.88074529511158 -7.461764921939458, -87.70604614880834 -7.893275190886676 C-87.51515198492197 -8.289671006677512, -87.3242578210356 -8.686066822468348, -87.1636864742735 -9.019496659696282 C-86.98794488813674 -9.331543641647421, -86.81220330199996 -9.643590623598561, -86.55028387860425 -10.108655082055243 C-86.30953780291334 -10.478505703689558, -86.06879172722243 -10.848356325323874, -85.86835896464063 -11.156274872382308 C-85.59552652839429 -11.52184548140614, -85.32269409214796 -11.887416090429973, -85.12071390812659 -12.158051136245302 C-84.88322701586286 -12.43701675328527, -84.64574012359913 -12.71598237032524, -84.31042094296866 -13.10986736009567 C-84.08679177784835 -13.340782833378302, -83.86316261272803 -13.571698306660936, -83.44080973676799 -14.007812326905677 C-83.16518173609954 -14.258130384395498, -82.8895537354311 -14.508448441885317, -82.5154537085019 -14.848196188198107 C-82.272995672429 -15.041550019886921, -82.03053763635612 -15.234903851575737, -81.53815534457871 -15.627565626425149 C-81.18127135532085 -15.87651244807254, -80.824387366063 -16.125459269719933, -80.51293057360571 -16.342718045390885 C-80.15238409393112 -16.561283440175924, -79.79183761425652 -16.779848834960962, -79.44399226407678 -16.99071473040609 C-79.0677504397843 -17.186999849145092, -78.69150861549181 -17.383284967884094, -78.3357329127924 -17.56889292409717 C-78.10484432072317 -17.671100454739474, -77.87395572865397 -17.77330798538178, -77.19270659514781 -18.07487676824742 C-76.79727210638436 -18.220400315468716, -76.4018376176209 -18.365923862690007, -76.01961025146062 -18.506587066708033 C-75.63045186778211 -18.622087232249772, -75.24129348410362 -18.737587397791508, -74.82126438623541 -18.862249829261067 C-74.4743140799495 -18.94143897260849, -74.12736377366357 -19.02062811595592, -73.60259325967677 -19.140403561325773 C-73.29896403710998 -19.18949197935058, -72.9953348145432 -19.238580397375394, -72.36860465284788 -19.3399052695533 C-71.90412466357 -19.384713095500018, -71.43964467429213 -19.42952092144674, -71.1243692896239 -19.45993515863156 C-70.72111949876293 -19.472866594546367, -70.31786970790195 -19.485798030461176, -69.875 -19.5 C-69.875 -19.5, -69.875 -19.5, -69.875 -19.5" stroke="none" stroke-width="0" fill="#ECECFF" style=""/><path d="M-69.875 -19.5 C-37.855542068093754 -19.5, -5.836084136187509 -19.5, 69.875 -19.5 M-69.875 -19.5 C-21.61460173756432 -19.5, 26.645796524871358 -19.5, 69.875 -19.5 M69.875 -19.5 C69.875 -19.5, 69.875 -19.5, 69.875 -19.5 M69.875 -19.5 C69.875 -19.5, 69.875 -19.5, 69.875 -19.5 M69.875 -19.5 C70.30022336187766 -19.486363914431646, 70.72544672375533 -19.472727828863295, 71.1243692896239 -19.45993515863156 M69.875 -19.5 C70.18635575323566 -19.490015427010942, 70.4977115064713 -19.480030854021884, 71.1243692896239 -19.45993515863156 M71.1243692896239 -19.45993515863156 C71.38514927657394 -19.43477802692431, 71.645929263524 -19.409620895217056, 72.36860465284786 -19.3399052695533 M71.1243692896239 -19.45993515863156 C71.57893567249245 -19.41608368637229, 72.03350205536101 -19.37223221411302, 72.36860465284786 -19.3399052695533 M72.36860465284786 -19.3399052695533 C72.8470541150513 -19.262553270935243, 73.32550357725472 -19.18520127231719, 73.60259325967675 -19.140403561325776 M72.36860465284786 -19.3399052695533 C72.85850302615431 -19.26070229977574, 73.34840139946076 -19.181499329998182, 73.60259325967675 -19.140403561325776 M73.60259325967675 -19.140403561325776 C73.96167283232116 -19.058445992082888, 74.32075240496556 -18.976488422839996, 74.82126438623538 -18.862249829261074 M73.60259325967675 -19.140403561325776 C73.90341574994117 -19.07174279097313, 74.20423824020558 -19.00308202062048, 74.82126438623538 -18.862249829261074 M74.82126438623538 -18.862249829261074 C75.13442718124001 -18.769304755528754, 75.44758997624466 -18.676359681796438, 76.0196102514606 -18.50658706670804 M74.82126438623538 -18.862249829261074 C75.1368362028938 -18.768589770547123, 75.45240801955224 -18.674929711833173, 76.0196102514606 -18.50658706670804 M76.0196102514606 -18.50658706670804 C76.26465885871407 -18.41640691403427, 76.50970746596755 -18.326226761360495, 77.1927065951478 -18.074876768247425 M76.0196102514606 -18.50658706670804 C76.31550289557516 -18.397695838472263, 76.61139553968972 -18.288804610236486, 77.1927065951478 -18.074876768247425 M77.1927065951478 -18.074876768247425 C77.60820291146968 -17.890948874272034, 78.02369922779155 -17.707020980296647, 78.33573291279238 -17.568892924097174 M77.1927065951478 -18.074876768247425 C77.42983438899027 -17.96990732805944, 77.66696218283276 -17.864937887871452, 78.33573291279238 -17.568892924097174 M78.33573291279238 -17.568892924097174 C78.64600649286162 -17.40702339611477, 78.95628007293084 -17.245153868132366, 79.44399226407678 -16.990714730406097 M78.33573291279238 -17.568892924097174 C78.72420097481333 -17.366229384966516, 79.11266903683428 -17.16356584583586, 79.44399226407678 -16.990714730406097 M79.44399226407678 -16.990714730406097 C79.86851039578936 -16.733369344216477, 80.29302852750193 -16.47602395802686, 80.5129305736057 -16.342718045390892 M79.44399226407678 -16.990714730406097 C79.68950513684968 -16.841883384137383, 79.93501800962257 -16.693052037868668, 80.5129305736057 -16.342718045390892 M80.5129305736057 -16.342718045390892 C80.89681971669533 -16.074933597464728, 81.28070885978497 -15.807149149538562, 81.53815534457871 -15.627565626425154 M80.5129305736057 -16.342718045390892 C80.91970311117267 -16.058971132083517, 81.32647564873965 -15.775224218776144, 81.53815534457871 -15.627565626425154 M81.53815534457871 -15.627565626425154 C81.9190098185361 -15.323844318407334, 82.29986429249348 -15.020123010389513, 82.51545370850187 -14.848196188198123 M81.53815534457871 -15.627565626425154 C81.92299785158242 -15.320663968178906, 82.30784035858612 -15.013762309932659, 82.51545370850187 -14.848196188198123 M82.51545370850187 -14.848196188198123 C82.85330374040882 -14.541369728242234, 83.19115377231577 -14.234543268286345, 83.44080973676799 -14.007812326905688 M82.51545370850187 -14.848196188198123 C82.72157618521842 -14.661001208546024, 82.927698661935 -14.473806228893922, 83.44080973676799 -14.007812326905688 M83.44080973676799 -14.007812326905688 C83.71038923581382 -13.729449361252374, 83.97996873485965 -13.451086395599063, 84.31042094296865 -13.10986736009568 M83.44080973676799 -14.007812326905688 C83.71113283778938 -13.728681531161754, 83.98145593881077 -13.44955073541782, 84.31042094296865 -13.10986736009568 M84.31042094296865 -13.10986736009568 C84.49963325523764 -12.887607811618953, 84.68884556750663 -12.665348263142224, 85.12071390812658 -12.158051136245305 M84.31042094296865 -13.10986736009568 C84.53202495268954 -12.849558680652144, 84.75362896241045 -12.589250001208608, 85.12071390812658 -12.158051136245305 M85.12071390812658 -12.158051136245305 C85.41395858242477 -11.765129987825134, 85.70720325672298 -11.372208839404962, 85.86835896464063 -11.156274872382312 M85.12071390812658 -12.158051136245305 C85.28488437994157 -11.938077660250876, 85.44905485175656 -11.718104184256447, 85.86835896464063 -11.156274872382312 M85.86835896464063 -11.156274872382312 C86.13366495868675 -10.748693620892878, 86.39897095273288 -10.341112369403444, 86.55028387860425 -10.108655082055241 M85.86835896464063 -11.156274872382312 C86.04398236243188 -10.886470171889432, 86.21960576022312 -10.616665471396551, 86.55028387860425 -10.108655082055241 M86.55028387860425 -10.108655082055241 C86.7902064926009 -9.68264818610507, 87.03012910659757 -9.256641290154898, 87.1636864742735 -9.019496659696287 M86.55028387860425 -10.108655082055241 C86.77932787145366 -9.701964279531847, 87.00837186430307 -9.295273477008452, 87.1636864742735 -9.019496659696287 M87.1636864742735 -9.019496659696287 C87.34938419374379 -8.633891371921543, 87.53508191321409 -8.248286084146798, 87.70604614880834 -7.893275190886684 M87.1636864742735 -9.019496659696287 C87.2987979488961 -8.738934791720048, 87.43390942351867 -8.458372923743807, 87.70604614880834 -7.893275190886684 M87.70604614880834 -7.893275190886684 C87.86290945666438 -7.505819787736515, 88.01977276452043 -7.118364384586346, 88.17513422997033 -6.734618561215508 M87.70604614880834 -7.893275190886684 C87.80811997224879 -7.6411508735256675, 87.91019379568922 -7.389026556164651, 88.17513422997033 -6.734618561215508 M88.17513422997033 -6.734618561215508 C88.25697682807726 -6.488121695564581, 88.3388194261842 -6.241624829913653, 88.56902313421489 -5.548287939305138 M88.17513422997033 -6.734618561215508 C88.25879496722334 -6.482645750137737, 88.34245570447635 -6.230672939059965, 88.56902313421489 -5.548287939305138 M88.56902313421489 -5.548287939305138 C88.63348464875412 -5.302468246569923, 88.69794616329335 -5.056648553834707, 88.88609428754556 -4.339158212148133 M88.56902313421489 -5.548287939305138 C88.6665073809945 -5.176538256394648, 88.76399162777412 -4.804788573484158, 88.88609428754556 -4.339158212148133 M88.88609428754556 -4.339158212148133 C88.97012870646512 -3.9076592316769583, 89.05416312538466 -3.4761602512057834, 89.12504477658177 -3.1121979531509023 M88.88609428754556 -4.339158212148133 C88.93574625084634 -4.084205874544819, 88.98539821414711 -3.8292535369415037, 89.12504477658177 -3.1121979531509023 M89.12504477658177 -3.1121979531509023 C89.17447946847214 -2.728792244833317, 89.2239141603625 -2.345386536515732, 89.28489270250937 -1.872449005199798 M89.12504477658177 -3.1121979531509023 C89.16568355900309 -2.797011581726507, 89.2063223414244 -2.4818252103021115, 89.28489270250937 -1.872449005199798 M89.28489270250937 -1.872449005199798 C89.31648223828387 -1.3804164868976527, 89.34807177405837 -0.8883839685955076, 89.36498121591342 -0.6250057626472757 M89.28489270250937 -1.872449005199798 C89.30701585246102 -1.5278630872175358, 89.32913900241267 -1.1832771692352737, 89.36498121591342 -0.6250057626472757 M89.36498121591342 -0.6250057626472757 C89.36498121591342 -0.2976748964331244, 89.36498121591342 0.029655969781026914, 89.36498121591342 0.625005762647271 M89.36498121591342 -0.6250057626472757 C89.36498121591342 -0.1470201039191687, 89.36498121591342 0.3309655548089383, 89.36498121591342 0.625005762647271 M89.36498121591342 0.625005762647271 C89.33890419660031 1.0311763874401194, 89.31282717728719 1.437347012232968, 89.28489270250937 1.8724490051997846 M89.36498121591342 0.625005762647271 C89.34356527487189 0.9585763310055558, 89.32214933383035 1.2921468993638405, 89.28489270250937 1.8724490051997846 M89.28489270250937 1.8724490051997846 C89.22211234087713 2.359361092634743, 89.1593319792449 2.8462731800697014, 89.12504477658177 3.1121979531508885 M89.28489270250937 1.8724490051997846 C89.24133222584088 2.21029546025152, 89.19777174917239 2.5481419153032547, 89.12504477658177 3.1121979531508885 M89.12504477658177 3.1121979531508885 C89.05613424935216 3.466038946229916, 88.98722372212254 3.8198799393089433, 88.88609428754556 4.339158212148129 M89.12504477658177 3.1121979531508885 C89.07356748227933 3.376522979663971, 89.02209018797687 3.6408480061770536, 88.88609428754556 4.339158212148129 M88.88609428754556 4.339158212148129 C88.77497719840966 4.762895831474419, 88.66386010927374 5.186633450800709, 88.56902313421489 5.548287939305125 M88.88609428754556 4.339158212148129 C88.81274168598762 4.618883473107179, 88.73938908442967 4.898608734066228, 88.56902313421489 5.548287939305125 M88.56902313421489 5.548287939305125 C88.42321642583505 5.987434513801062, 88.27740971745521 6.426581088296998, 88.17513422997033 6.734618561215495 M88.56902313421489 5.548287939305125 C88.45597596062085 5.888768014549282, 88.3429287870268 6.229248089793439, 88.17513422997033 6.734618561215495 M88.17513422997033 6.734618561215495 C88.02247722523217 7.111684314341156, 87.869820220494 7.4887500674668175, 87.70604614880834 7.893275190886679 M88.17513422997033 6.734618561215495 C87.98954644610069 7.19302397546919, 87.80395866223107 7.651429389722886, 87.70604614880834 7.893275190886679 M87.70604614880834 7.893275190886679 C87.54357600871951 8.230647913085225, 87.3811058686307 8.56802063528377, 87.1636864742735 9.019496659696284 M87.70604614880834 7.893275190886679 C87.59092092176732 8.132335188122614, 87.47579569472629 8.37139518535855, 87.1636864742735 9.019496659696284 M87.1636864742735 9.019496659696284 C86.91915355626048 9.453689617271406, 86.67462063824746 9.88788257484653, 86.55028387860425 10.108655082055236 M87.1636864742735 9.019496659696284 C86.96256289046549 9.37661194871868, 86.76143930665748 9.733727237741075, 86.55028387860425 10.108655082055236 M86.55028387860425 10.108655082055236 C86.35057789761576 10.415457097418159, 86.15087191662728 10.72225911278108, 85.86835896464065 11.156274872382301 M86.55028387860425 10.108655082055236 C86.33509475611453 10.439243360569693, 86.11990563362481 10.769831639084147, 85.86835896464065 11.156274872382301 M85.86835896464065 11.156274872382301 C85.65635335067414 11.440343080988658, 85.44434773670764 11.724411289595015, 85.12071390812659 12.158051136245302 M85.86835896464065 11.156274872382301 C85.70641685949968 11.373262540041909, 85.54447475435873 11.590250207701514, 85.12071390812659 12.158051136245302 M85.12071390812659 12.158051136245302 C84.9444361856372 12.36511697956789, 84.76815846314783 12.572182822890479, 84.31042094296866 13.10986736009567 M85.12071390812659 12.158051136245302 C84.87944415044007 12.441460322262024, 84.63817439275353 12.724869508278747, 84.31042094296866 13.10986736009567 M84.31042094296866 13.10986736009567 C84.03880776375426 13.390330267491267, 83.76719458453987 13.670793174886864, 83.44080973676799 14.007812326905684 M84.31042094296866 13.10986736009567 C83.9891566120766 13.441599158033828, 83.66789228118452 13.773330955971986, 83.44080973676799 14.007812326905684 M83.44080973676799 14.007812326905684 C83.11631313977209 14.302511550587887, 82.79181654277619 14.597210774270089, 82.5154537085019 14.848196188198111 M83.44080973676799 14.007812326905684 C83.09670021638925 14.32032348867467, 82.7525906960105 14.632834650443659, 82.5154537085019 14.848196188198111 M82.5154537085019 14.848196188198111 C82.16747239022618 15.125702029351205, 81.81949107195048 15.403207870504298, 81.53815534457871 15.627565626425152 M82.5154537085019 14.848196188198111 C82.31975361430567 15.004261805521383, 82.12405352010943 15.160327422844654, 81.53815534457871 15.627565626425152 M81.53815534457871 15.627565626425152 C81.3085131552045 15.78775407668245, 81.07887096583028 15.947942526939746, 80.5129305736057 16.34271804539089 M81.53815534457871 15.627565626425152 C81.21200471617965 15.855074185963192, 80.88585408778059 16.08258274550123, 80.5129305736057 16.34271804539089 M80.5129305736057 16.34271804539089 C80.2522981309289 16.50071496378781, 79.9916656882521 16.65871188218473, 79.44399226407678 16.990714730406093 M80.5129305736057 16.34271804539089 C80.2365629742051 16.51025370826382, 79.9601953748045 16.677789371136754, 79.44399226407678 16.990714730406093 M79.44399226407678 16.990714730406093 C79.17266558650044 17.132265684304638, 78.9013389089241 17.273816638203183, 78.33573291279238 17.56889292409717 M79.44399226407678 16.990714730406093 C79.02712700637966 17.20819306833174, 78.61026174868253 17.42567140625739, 78.33573291279238 17.56889292409717 M78.33573291279238 17.56889292409717 C78.07895740776881 17.68255982319638, 77.82218190274524 17.79622672229559, 77.1927065951478 18.07487676824742 M78.33573291279238 17.56889292409717 C77.98275749868337 17.72514466927959, 77.62978208457436 17.881396414462014, 77.1927065951478 18.07487676824742 M77.1927065951478 18.07487676824742 C76.83610187682712 18.206110601007314, 76.47949715850643 18.337344433767207, 76.01961025146062 18.506587066708033 M77.1927065951478 18.07487676824742 C76.88171430847093 18.18932480452569, 76.57072202179408 18.30377284080396, 76.01961025146062 18.506587066708033 M76.01961025146062 18.506587066708033 C75.6113243153973 18.627764189395016, 75.20303837933398 18.748941312082, 74.82126438623541 18.86224982926107 M76.01961025146062 18.506587066708033 C75.59178338903405 18.633563833767212, 75.16395652660748 18.760540600826392, 74.82126438623541 18.86224982926107 M74.82126438623541 18.86224982926107 C74.36373304055958 18.966678373240523, 73.90620169488375 19.071106917219975, 73.60259325967677 19.140403561325773 M74.82126438623541 18.86224982926107 C74.5712635261248 18.919310894173243, 74.32126266601419 18.976371959085416, 73.60259325967677 19.140403561325773 M73.60259325967677 19.140403561325773 C73.1798883081624 19.208743219760755, 72.75718335664806 19.277082878195742, 72.36860465284788 19.3399052695533 M73.60259325967677 19.140403561325773 C73.17836417075333 19.208989630477195, 72.7541350818299 19.277575699628613, 72.36860465284788 19.3399052695533 M72.36860465284788 19.3399052695533 C71.99625066246331 19.375825811184505, 71.62389667207874 19.411746352815715, 71.1243692896239 19.45993515863156 M72.36860465284788 19.3399052695533 C72.07589244461785 19.368142864243314, 71.7831802363878 19.396380458933333, 71.1243692896239 19.45993515863156 M71.1243692896239 19.45993515863156 C70.69166135441881 19.473811259898685, 70.25895341921373 19.487687361165808, 69.875 19.5 M71.1243692896239 19.45993515863156 C70.63488404215873 19.475631997792533, 70.14539879469355 19.491328836953503, 69.875 19.5 M69.875 19.5 C69.875 19.5, 69.875 19.5, 69.875 19.5 M69.875 19.5 C69.875 19.5, 69.875 19.5, 69.875 19.5 M69.875 19.5 C35.0631493443687 19.5, 0.2512986887374069 19.5, -69.875 19.5 M69.875 19.5 C25.011943832110738 19.5, -19.851112335778524 19.5, -69.875 19.5 M-69.875 19.5 C-70.32148415228185 19.485682122265004, -70.76796830456371 19.471364244530005, -71.1243692896239 19.45993515863156 M-69.875 19.5 C-70.26092770931213 19.487624049525078, -70.64685541862427 19.47524809905015, -71.1243692896239 19.45993515863156 M-71.1243692896239 19.45993515863156 C-71.60375729504318 19.41368917429719, -72.08314530046248 19.367443189962817, -72.36860465284786 19.3399052695533 M-71.1243692896239 19.45993515863156 C-71.6146209278599 19.412641172704788, -72.1048725660959 19.36534718677802, -72.36860465284786 19.3399052695533 M-72.36860465284786 19.3399052695533 C-72.80527032423906 19.26930855019563, -73.24193599563026 19.198711830837954, -73.60259325967675 19.140403561325773 M-72.36860465284786 19.3399052695533 C-72.7410597917285 19.27968961113182, -73.11351493060913 19.219473952710338, -73.60259325967675 19.140403561325773 M-73.60259325967675 19.140403561325773 C-73.88768097890929 19.075334149782176, -74.17276869814182 19.010264738238575, -74.82126438623538 18.862249829261074 M-73.60259325967675 19.140403561325773 C-74.06653816121984 19.034511165071983, -74.53048306276293 18.928618768818193, -74.82126438623538 18.862249829261074 M-74.82126438623538 18.862249829261074 C-75.10447989694022 18.778192952312434, -75.38769540764504 18.694136075363794, -76.01961025146059 18.506587066708043 M-74.82126438623538 18.862249829261074 C-75.29785913935335 18.72079900823257, -75.77445389247133 18.57934818720407, -76.01961025146059 18.506587066708043 M-76.01961025146059 18.506587066708043 C-76.36057853944763 18.38110758485251, -76.70154682743467 18.25562810299698, -77.1927065951478 18.074876768247425 M-76.01961025146059 18.506587066708043 C-76.43874226917801 18.352342609774134, -76.85787428689542 18.198098152840227, -77.1927065951478 18.074876768247425 M-77.1927065951478 18.074876768247425 C-77.61390664772338 17.888423999427843, -78.03510670029897 17.701971230608265, -78.33573291279238 17.568892924097174 M-77.1927065951478 18.074876768247425 C-77.45367961772091 17.95935175264397, -77.71465264029402 17.843826737040512, -78.33573291279238 17.568892924097174 M-78.33573291279238 17.568892924097174 C-78.57629623821653 17.443391191311562, -78.81685956364068 17.317889458525947, -79.44399226407678 16.990714730406097 M-78.33573291279238 17.568892924097174 C-78.63626004277589 17.41210811288159, -78.93678717275941 17.255323301666007, -79.44399226407678 16.990714730406097 M-79.44399226407678 16.990714730406097 C-79.7502533674147 16.80505744977263, -80.05651447075263 16.619400169139162, -80.51293057360569 16.3427180453909 M-79.44399226407678 16.990714730406097 C-79.79482468308194 16.778038056285027, -80.1456571020871 16.565361382163957, -80.51293057360569 16.3427180453909 M-80.51293057360569 16.3427180453909 C-80.81289687840514 16.133474536494848, -81.1128631832046 15.924231027598795, -81.53815534457871 15.627565626425156 M-80.51293057360569 16.3427180453909 C-80.7928494151163 16.147458779044452, -81.0727682566269 15.952199512698003, -81.53815534457871 15.627565626425156 M-81.53815534457871 15.627565626425156 C-81.92732318253202 15.317214631848493, -82.31649102048532 15.006863637271833, -82.51545370850187 14.848196188198125 M-81.53815534457871 15.627565626425156 C-81.83674017342781 15.389452171093989, -82.13532500227691 15.151338715762822, -82.51545370850187 14.848196188198125 M-82.51545370850187 14.848196188198125 C-82.7124462217923 14.669292799764037, -82.90943873508274 14.490389411329947, -83.44080973676797 14.007812326905697 M-82.51545370850187 14.848196188198125 C-82.83200541765348 14.560712301445895, -83.14855712680509 14.273228414693662, -83.44080973676797 14.007812326905697 M-83.44080973676797 14.007812326905697 C-83.69430144085804 13.74606133037674, -83.94779314494811 13.484310333847786, -84.31042094296865 13.109867360095677 M-83.44080973676797 14.007812326905697 C-83.72596744526523 13.713363580999019, -84.01112515376246 13.418914835092341, -84.31042094296865 13.109867360095677 M-84.31042094296865 13.109867360095677 C-84.59732226426543 12.772856742952818, -84.88422358556222 12.43584612580996, -85.12071390812658 12.158051136245307 M-84.31042094296865 13.109867360095677 C-84.6216593892271 12.744268971151195, -84.93289783548558 12.378670582206714, -85.12071390812658 12.158051136245307 M-85.12071390812658 12.158051136245307 C-85.301582021046 11.915704342357326, -85.48245013396544 11.673357548469347, -85.86835896464063 11.156274872382316 M-85.12071390812658 12.158051136245307 C-85.40303417498677 11.77976769855807, -85.68535444184697 11.40148426087083, -85.86835896464063 11.156274872382316 M-85.86835896464063 11.156274872382316 C-86.00727037709768 10.94286963991115, -86.14618178955472 10.729464407439984, -86.55028387860425 10.108655082055249 M-85.86835896464063 11.156274872382316 C-86.03497371630661 10.900309871498045, -86.20158846797258 10.644344870613775, -86.55028387860425 10.108655082055249 M-86.55028387860425 10.108655082055249 C-86.69538416063266 9.851014838317004, -86.84048444266107 9.593374594578759, -87.1636864742735 9.019496659696289 M-86.55028387860425 10.108655082055249 C-86.73152076720126 9.786850634126244, -86.91275765579826 9.46504618619724, -87.1636864742735 9.019496659696289 M-87.1636864742735 9.019496659696289 C-87.31784471950913 8.699383765006473, -87.47200296474475 8.379270870316658, -87.70604614880834 7.893275190886686 M-87.1636864742735 9.019496659696289 C-87.3471307402676 8.63857071628104, -87.5305750062617 8.257644772865788, -87.70604614880834 7.893275190886686 M-87.70604614880834 7.893275190886686 C-87.87365920974617 7.479267689792176, -88.04127227068399 7.065260188697668, -88.17513422997033 6.73461856121551 M-87.70604614880834 7.893275190886686 C-87.84097562643186 7.559996772472629, -87.97590510405537 7.226718354058572, -88.17513422997033 6.73461856121551 M-88.17513422997033 6.73461856121551 C-88.2600674454294 6.478813248522927, -88.34500066088849 6.223007935830344, -88.56902313421489 5.5482879393051325 M-88.17513422997033 6.73461856121551 C-88.28052599428939 6.417195358983744, -88.38591775860846 6.0997721567519765, -88.56902313421489 5.5482879393051325 M-88.56902313421489 5.5482879393051325 C-88.69285982482732 5.076044966838682, -88.81669651543976 4.6038019943722315, -88.88609428754556 4.339158212148136 M-88.56902313421489 5.5482879393051325 C-88.67377065488964 5.1488402451096995, -88.77851817556437 4.7493925509142665, -88.88609428754556 4.339158212148136 M-88.88609428754556 4.339158212148136 C-88.97372600134523 3.889187882756133, -89.06135771514488 3.4392175533641303, -89.12504477658177 3.112197953150904 M-88.88609428754556 4.339158212148136 C-88.97285724136836 3.8936487816248575, -89.05962019519116 3.448139351101579, -89.12504477658177 3.112197953150904 M-89.12504477658177 3.112197953150904 C-89.17920612255851 2.692133249122834, -89.23336746853525 2.272068545094764, -89.28489270250937 1.872449005199809 M-89.12504477658177 3.112197953150904 C-89.16640906780518 2.79138467872542, -89.20777335902858 2.4705714042999363, -89.28489270250937 1.872449005199809 M-89.28489270250937 1.872449005199809 C-89.31463681506665 1.4091604431045412, -89.34438092762394 0.9458718810092736, -89.36498121591342 0.6250057626472781 M-89.28489270250937 1.872449005199809 C-89.30669565186207 1.532850470007582, -89.32849860121476 1.193251934815355, -89.36498121591342 0.6250057626472781 M-89.36498121591342 0.6250057626472781 C-89.36498121591342 0.2712496444332322, -89.36498121591342 -0.08250647378081377, -89.36498121591342 -0.6250057626472687 M-89.36498121591342 0.6250057626472781 C-89.36498121591342 0.29745040832982006, -89.36498121591342 -0.03010494598763802, -89.36498121591342 -0.6250057626472687 M-89.36498121591342 -0.6250057626472687 C-89.33434312297555 -1.102218790777984, -89.30370503003769 -1.579431818908699, -89.28489270250937 -1.8724490051997822 M-89.36498121591342 -0.6250057626472687 C-89.33746424698572 -1.0536047649936895, -89.30994727805802 -1.4822037673401103, -89.28489270250937 -1.8724490051997822 M-89.28489270250937 -1.8724490051997822 C-89.25212488759415 -2.1265897069452633, -89.21935707267893 -2.3807304086907446, -89.12504477658177 -3.112197953150895 M-89.28489270250937 -1.8724490051997822 C-89.23803009230639 -2.235906155864966, -89.19116748210341 -2.599363306530151, -89.12504477658177 -3.112197953150895 M-89.12504477658177 -3.112197953150895 C-89.06287109460555 -3.4314466696864336, -89.00069741262934 -3.750695386221972, -88.88609428754556 -4.339158212148126 M-89.12504477658177 -3.112197953150895 C-89.0471613399118 -3.5121129397810837, -88.96927790324182 -3.9120279264112723, -88.88609428754556 -4.339158212148126 M-88.88609428754556 -4.339158212148126 C-88.76116188990075 -4.815579590411456, -88.63622949225594 -5.292000968674786, -88.56902313421489 -5.548287939305123 M-88.88609428754556 -4.339158212148126 C-88.79620427328842 -4.681947795089223, -88.70631425903129 -5.02473737803032, -88.56902313421489 -5.548287939305123 M-88.56902313421489 -5.548287939305123 C-88.4346015018439 -5.953144478827937, -88.3001798694729 -6.358001018350752, -88.17513422997033 -6.734618561215485 M-88.56902313421489 -5.548287939305123 C-88.430875785713 -5.964365742201933, -88.29272843721111 -6.380443545098742, -88.17513422997033 -6.734618561215485 M-88.17513422997033 -6.734618561215485 C-87.99296704973443 -7.184575018360975, -87.81079986949854 -7.634531475506464, -87.70604614880834 -7.893275190886676 M-88.17513422997033 -6.734618561215485 C-88.03678955966431 -7.076332571583595, -87.89844488935829 -7.418046581951707, -87.70604614880834 -7.893275190886676 M-87.70604614880834 -7.893275190886676 C-87.58699832404284 -8.140480546227636, -87.46795049927734 -8.387685901568597, -87.1636864742735 -9.019496659696282 M-87.70604614880834 -7.893275190886676 C-87.54001840897448 -8.23803534507625, -87.37399066914061 -8.582795499265824, -87.1636864742735 -9.019496659696282 M-87.1636864742735 -9.019496659696282 C-86.92503832895582 -9.443240607452985, -86.68639018363814 -9.866984555209687, -86.55028387860425 -10.108655082055243 M-87.1636864742735 -9.019496659696282 C-86.96424992928947 -9.37361644045551, -86.76481338430543 -9.727736221214741, -86.55028387860425 -10.108655082055243 M-86.55028387860425 -10.108655082055243 C-86.33990304189814 -10.431856542400551, -86.12952220519203 -10.755058002745857, -85.86835896464063 -11.156274872382308 M-86.55028387860425 -10.108655082055243 C-86.3596257047614 -10.401557235966058, -86.16896753091855 -10.694459389876872, -85.86835896464063 -11.156274872382308 M-85.86835896464063 -11.156274872382308 C-85.62069472807418 -11.488122386705244, -85.37303049150773 -11.81996990102818, -85.12071390812659 -12.158051136245302 M-85.86835896464063 -11.156274872382308 C-85.59823421019252 -11.518217434471413, -85.3281094557444 -11.880159996560518, -85.12071390812659 -12.158051136245302 M-85.12071390812659 -12.158051136245302 C-84.89721240122188 -12.420588723851596, -84.67371089431715 -12.68312631145789, -84.31042094296866 -13.10986736009567 M-85.12071390812659 -12.158051136245302 C-84.94412863687424 -12.3654782438449, -84.76754336562188 -12.572905351444497, -84.31042094296866 -13.10986736009567 M-84.31042094296866 -13.10986736009567 C-84.06372728333345 -13.36459881759515, -83.81703362369824 -13.619330275094628, -83.44080973676799 -14.007812326905677 M-84.31042094296866 -13.10986736009567 C-84.0324776367788 -13.39686664330653, -83.75453433058892 -13.68386592651739, -83.44080973676799 -14.007812326905677 M-83.44080973676799 -14.007812326905677 C-83.1470626740054 -14.274585637185288, -82.8533156112428 -14.541358947464898, -82.5154537085019 -14.848196188198107 M-83.44080973676799 -14.007812326905677 C-83.2070034338269 -14.220149025060994, -82.97319713088581 -14.432485723216312, -82.5154537085019 -14.848196188198107 M-82.5154537085019 -14.848196188198107 C-82.18978850295369 -15.107905523307718, -81.86412329740548 -15.367614858417328, -81.53815534457871 -15.627565626425149 M-82.5154537085019 -14.848196188198107 C-82.23418681480801 -15.072499051092596, -81.95291992111412 -15.296801913987084, -81.53815534457871 -15.627565626425149 M-81.53815534457871 -15.627565626425149 C-81.3323617840239 -15.771118305608528, -81.1265682234691 -15.914670984791908, -80.51293057360571 -16.342718045390885 M-81.53815534457871 -15.627565626425149 C-81.27361667131036 -15.81209635320255, -81.00907799804203 -15.996627079979952, -80.51293057360571 -16.342718045390885 M-80.51293057360571 -16.342718045390885 C-80.2404891049331 -16.507873664744007, -79.96804763626048 -16.67302928409713, -79.44399226407678 -16.99071473040609 M-80.51293057360571 -16.342718045390885 C-80.113540432532 -16.584830695986756, -79.7141502914583 -16.826943346582627, -79.44399226407678 -16.99071473040609 M-79.44399226407678 -16.99071473040609 C-79.19930531987228 -17.11836775246811, -78.95461837566779 -17.24602077453013, -78.3357329127924 -17.56889292409717 M-79.44399226407678 -16.99071473040609 C-79.11549516607889 -17.162091456019162, -78.78699806808099 -17.333468181632234, -78.3357329127924 -17.56889292409717 M-78.3357329127924 -17.56889292409717 C-77.97712208133892 -17.727639301369273, -77.61851124988544 -17.88638567864137, -77.19270659514781 -18.07487676824742 M-78.3357329127924 -17.56889292409717 C-78.06286574318817 -17.689683125763967, -77.78999857358394 -17.810473327430763, -77.19270659514781 -18.07487676824742 M-77.19270659514781 -18.07487676824742 C-76.74536251550336 -18.239503524759918, -76.2980184358589 -18.40413028127242, -76.01961025146062 -18.506587066708033 M-77.19270659514781 -18.07487676824742 C-76.83471901036769 -18.20661950864746, -76.47673142558757 -18.338362249047503, -76.01961025146062 -18.506587066708033 M-76.01961025146062 -18.506587066708033 C-75.5907698545862 -18.633864645471185, -75.16192945771178 -18.761142224234334, -74.82126438623541 -18.862249829261067 M-76.01961025146062 -18.506587066708033 C-75.70930692849457 -18.598683464148976, -75.3990036055285 -18.69077986158992, -74.82126438623541 -18.862249829261067 M-74.82126438623541 -18.862249829261067 C-74.39072369941117 -18.960517931488155, -73.96018301258691 -19.058786033715247, -73.60259325967677 -19.140403561325773 M-74.82126438623541 -18.862249829261067 C-74.35787492675354 -18.968015449488984, -73.89448546727166 -19.0737810697169, -73.60259325967677 -19.140403561325773 M-73.60259325967677 -19.140403561325773 C-73.31203317233073 -19.187379062920748, -73.02147308498469 -19.234354564515726, -72.36860465284788 -19.3399052695533 M-73.60259325967677 -19.140403561325773 C-73.27132339713155 -19.19396070366593, -72.94005353458635 -19.247517846006087, -72.36860465284788 -19.3399052695533 M-72.36860465284788 -19.3399052695533 C-71.98876487330485 -19.376547956261646, -71.60892509376181 -19.41319064296999, -71.1243692896239 -19.45993515863156 M-72.36860465284788 -19.3399052695533 C-72.07591400683182 -19.368140784162463, -71.78322336081575 -19.39637629877163, -71.1243692896239 -19.45993515863156 M-71.1243692896239 -19.45993515863156 C-70.834743416301 -19.469222896666462, -70.54511754297809 -19.47851063470136, -69.875 -19.5 M-71.1243692896239 -19.45993515863156 C-70.87049803287707 -19.468076315705005, -70.61662677613023 -19.47621747277845, -69.875 -19.5 M-69.875 -19.5 C-69.875 -19.5, -69.875 -19.5, -69.875 -19.5 M-69.875 -19.5 C-69.875 -19.5, -69.875 -19.5, -69.875 -19.5" stroke="#9370DB" stroke-width="1.3" fill="none" stroke-dasharray="0 0" style=""/></g><g class="label" style="" transform="translate(-77, -12)"><rect/><foreignObject width="154" height="24"><div xmlns="http://www.w3.org/1999/xhtml" style="display: table-cell; white-space: nowrap; line-height: 1.5; max-width: 200px; text-align: center;"><span class="nodeLabel"><p>New to Helix Thready</p></span></div></foreignObject></g></g><g class="node default" id="my-svg-flowchart-INSTALL-1" data-look="classic" transform="translate(564, 136)"><rect class="basic label-container" style="" x="-95" y="-39" width="190" height="78"/><g class="label" style="" transform="translate(-65, -24)"><rect/><foreignObject width="130" height="48"><div xmlns="http://www.w3.org/1999/xhtml" style="display: table-cell; white-space: nowrap; line-height: 1.5; max-width: 200px; text-align: center;"><span class="nodeLabel"><p>installation.md<br />provision + deploy</p></span></div></foreignObject></g></g><g class="node default" id="my-svg-flowchart-CONFIG-3" data-look="classic" transform="translate(564, 264)"><rect class="basic label-container" style="" x="-89" y="-39" width="178" height="78"/><g class="label" style="" transform="translate(-59, -24)"><rect/><foreignObject width="118" height="48"><div xmlns="http://www.w3.org/1999/xhtml" style="display: table-cell; white-space: nowrap; line-height: 1.5; max-width: 200px; text-align: center;"><span class="nodeLabel"><p>configuration.md<br />.env reference</p></span></div></foreignObject></g></g><g class="node default" id="my-svg-flowchart-ROLE-5" data-look="classic" transform="translate(564, 416.5)"><polygon points="63.5,0 127,-63.5 63.5,-127 0,-63.5" class="label-container" transform="translate(-63, 63.5)"/><g class="label" style="" transform="translate(-36.5, -12)"><rect/><foreignObject width="73" height="24"><div xmlns="http://www.w3.org/1999/xhtml" style="display: table-cell; white-space: nowrap; line-height: 1.5; max-width: 200px; text-align: center;"><span class="nodeLabel"><p>Your role?</p></span></div></foreignObject></g></g><g class="node default" id="my-svg-flowchart-ROOT-7" data-look="classic" transform="translate(289.5, 581)"><rect class="basic label-container" style="" x="-103.5" y="-27" width="207" height="54"/><g class="label" style="" transform="translate(-73.5, -12)"><rect/><foreignObject width="147" height="24"><div xmlns="http://www.w3.org/1999/xhtml" style="display: table-cell; white-space: nowrap; line-height: 1.5; max-width: 200px; text-align: center;"><span class="nodeLabel"><p>root-admin-guide.md</p></span></div></foreignObject></g></g><g class="node default" id="my-svg-flowchart-ACCT-9" data-look="classic" transform="translate(561, 581)"><rect class="basic label-container" style="" x="-118" y="-27" width="236" height="54"/><g class="label" style="" transform="translate(-88, -12)"><rect/><foreignObject width="176" height="24"><div xmlns="http://www.w3.org/1999/xhtml" style="display: table-cell; white-space: nowrap; line-height: 1.5; max-width: 200px; text-align: center;"><span class="nodeLabel"><p>account-admin-guide.md</p></span></div></foreignObject></g></g><g class="node default" id="my-svg-flowchart-USER-11" data-look="classic" transform="translate(832.5, 581)"><rect class="basic label-container" style="" x="-103.5" y="-27" width="207" height="54"/><g class="label" style="" transform="translate(-73.5, -12)"><rect/><foreignObject width="147" height="24"><div xmlns="http://www.w3.org/1999/xhtml" style="display: table-cell; white-space: nowrap; line-height: 1.5; max-width: 200px; text-align: center;"><span class="nodeLabel"><p>end-user-manual.md</p></span></div></foreignObject></g></g><g class="node default" id="my-svg-flowchart-SURFACE-13" data-look="classic" transform="translate(564, 740)"><polygon points="82,0 164,-82 82,-164 0,-82" class="label-container" transform="translate(-81.5, 82)"/><g class="label" style="" transform="translate(-55, -12)"><rect/><foreignObject width="110" height="24"><div xmlns="http://www.w3.org/1999/xhtml" style="display: table-cell; white-space: nowrap; line-height: 1.5; max-width: 200px; text-align: center;"><span class="nodeLabel"><p>Which surface?</p></span></div></foreignObject></g></g><g class="node default" id="my-svg-flowchart-WEB-19" data-look="classic" transform="translate(111, 923)"><rect class="basic label-container" style="" x="-103" y="-27" width="206" height="54"/><g class="label" style="" transform="translate(-73, -12)"><rect/><foreignObject width="146" height="24"><div xmlns="http://www.w3.org/1999/xhtml" style="display: table-cell; white-space: nowrap; line-height: 1.5; max-width: 200px; text-align: center;"><span class="nodeLabel"><p>web-portal-guide.md</p></span></div></foreignObject></g></g><g class="node default" id="my-svg-flowchart-CLI-21" data-look="classic" transform="translate(351, 923)"><rect class="basic label-container" style="" x="-87" y="-27" width="174" height="54"/><g class="label" style="" transform="translate(-57, -12)"><rect/><foreignObject width="114" height="24"><div xmlns="http://www.w3.org/1999/xhtml" style="display: table-cell; white-space: nowrap; line-height: 1.5; max-width: 200px; text-align: center;"><span class="nodeLabel"><p>cli-reference.md</p></span></div></foreignObject></g></g><g class="node default" id="my-svg-flowchart-TUI-23" data-look="classic" transform="translate(564, 923)"><rect class="basic label-container" style="" x="-76" y="-27" width="152" height="54"/><g class="label" style="" transform="translate(-46, -12)"><rect/><foreignObject width="92" height="24"><div xmlns="http://www.w3.org/1999/xhtml" style="display: table-cell; white-space: nowrap; line-height: 1.5; max-width: 200px; text-align: center;"><span class="nodeLabel"><p>tui-usage.md</p></span></div></foreignObject></g></g><g class="node default" id="my-svg-flowchart-MOB-25" data-look="classic" transform="translate(779.5, 923)"><rect class="basic label-container" style="" x="-89.5" y="-27" width="179" height="54"/><g class="label" style="" transform="translate(-59.5, -12)"><rect/><foreignObject width="119" height="24"><div xmlns="http://www.w3.org/1999/xhtml" style="display: table-cell; white-space: nowrap; line-height: 1.5; max-width: 200px; text-align: center;"><span class="nodeLabel"><p>mobile-guide.md</p></span></div></foreignObject></g></g><g class="node default" id="my-svg-flowchart-SDK-27" data-look="classic" transform="translate(1011, 923)"><rect class="basic label-container" style="" x="-92" y="-27" width="184" height="54"/><g class="label" style="" transform="translate(-62, -12)"><rect/><foreignObject width="124" height="24"><div xmlns="http://www.w3.org/1999/xhtml" style="display: table-cell; white-space: nowrap; line-height: 1.5; max-width: 200px; text-align: center;"><span class="nodeLabel"><p>sdk-quickstart.md</p></span></div></foreignObject></g></g><g class="node default" id="my-svg-flowchart-HELP-29" data-look="classic" transform="translate(564, 1051.5)"><polygon points="51.5,0 103,-51.5 51.5,-103 0,-51.5" class="label-container" transform="translate(-51, 51.5)"/><g class="label" style="" transform="translate(-24.5, -12)"><rect/><foreignObject width="49" height="24"><div xmlns="http://www.w3.org/1999/xhtml" style="display: table-cell; white-space: nowrap; line-height: 1.5; max-width: 200px; text-align: center;"><span class="nodeLabel"><p>Stuck?</p></span></div></foreignObject></g></g><g class="node default" id="my-svg-flowchart-FAQ-39" data-look="classic" transform="translate(463, 1180)"><rect class="basic label-container" style="" x="-54" y="-27" width="108" height="54"/><g class="label" style="" transform="translate(-24, -12)"><rect/><foreignObject width="48" height="24"><div xmlns="http://www.w3.org/1999/xhtml" style="display: table-cell; white-space: nowrap; line-height: 1.5; max-width: 200px; text-align: center;"><span class="nodeLabel"><p>faq.md</p></span></div></foreignObject></g></g><g class="node default" id="my-svg-flowchart-TRB-41" data-look="classic" transform="translate(665, 1180)"><rect class="basic label-container" style="" x="-98" y="-27" width="196" height="54"/><g class="label" style="" transform="translate(-68, -12)"><rect/><foreignObject width="136" height="24"><div xmlns="http://www.w3.org/1999/xhtml" style="display: table-cell; white-space: nowrap; line-height: 1.5; max-width: 200px; text-align: center;"><span class="nodeLabel"><p>troubleshooting.md</p></span></div></foreignObject></g></g></g></g></g><defs><filter id="my-svg-drop-shadow" height="130%" width="130%"><feDropShadow dx="4" dy="4" stdDeviation="0" flood-opacity="0.06" flood-color="#000000"/></filter></defs><defs><filter id="my-svg-drop-shadow-small" height="150%" width="150%"><feDropShadow dx="2" dy="2" stdDeviation="0" flood-opacity="0.06" flood-color="#000000"/></filter></defs></svg>